<svg width="60" height="60" viewBox="0 0 60 60" fill="none" xmlns="http://www.w3.org/2000/svg">
<path opacity="0.21" fill-rule="evenodd" clip-rule="evenodd" d="M0 30V37C0 49.7025 10.2975 60 23 60H30H37C49.7025 60 60 49.7025 60 37V30V23C60 10.2975 49.7025 0 37 0H30H23C10.2975 0 0 10.2975 0 23V30Z" fill="#8280FF"/>
<path opacity="0.4" d="M30 20.5083V43.2175C29.7592 43.2175 29.5042 43.175 29.3059 43.0616L29.2492 43.0333C26.5292 41.5458 21.7834 39.9875 18.7092 39.5767L18.2984 39.52C16.9384 39.35 15.8334 38.075 15.8334 36.715V19.6016C15.8334 17.9158 17.2075 16.6408 18.8934 16.7825C21.8684 17.0233 26.3734 18.525 28.895 20.0975L29.2492 20.31C29.4617 20.4375 29.7309 20.5083 30 20.5083Z" fill="#8280FF"/>
<path d="M44.1667 19.6158V36.715C44.1667 38.075 43.0617 39.35 41.7017 39.52L41.2342 39.5766C38.1458 39.9875 33.3858 41.56 30.6658 43.0616C30.4817 43.175 30.255 43.2175 30 43.2175V20.5083C30.2692 20.5083 30.5383 20.4375 30.7508 20.31L30.9917 20.1541C33.5133 18.5675 38.0325 17.0516 41.0075 16.7966H41.0925C42.7783 16.655 44.1667 17.9158 44.1667 19.6158Z" fill="#8280FF"/>
<path d="M23.9791 26.09H20.7916C20.2108 26.09 19.7291 25.6083 19.7291 25.0275C19.7291 24.4466 20.2108 23.965 20.7916 23.965H23.9791C24.56 23.965 25.0416 24.4466 25.0416 25.0275C25.0416 25.6083 24.56 26.09 23.9791 26.09Z" fill="#8280FF"/>
<path d="M25.0416 30.34H20.7916C20.2108 30.34 19.7291 29.8583 19.7291 29.2775C19.7291 28.6966 20.2108 28.215 20.7916 28.215H25.0416C25.6225 28.215 26.1041 28.6966 26.1041 29.2775C26.1041 29.8583 25.6225 30.34 25.0416 30.34Z" fill="#8280FF"/>
</svg>
