<?xml version="1.0" encoding="UTF-8"?>
<svg version="1.1" xmlns="http://www.w3.org/2000/svg" width="797" height="808">
<path d="M0 0 C4.0412044 1.68938073 7.73902967 3.88995265 11.5 6.125 C12.59658936 6.75809082 13.69317871 7.39118164 14.82299805 8.04345703 C18.22519506 10.01257271 21.61314236 12.00464201 25 14 C26.99531733 15.16279167 28.99138013 16.32430534 30.98828125 17.484375 C34.89197459 19.7550271 38.79102481 22.03339294 42.6875 24.31640625 C49.24611747 28.15172599 55.82639401 31.948633 62.41830444 35.72637939 C63.67312607 36.44588675 64.92738627 37.16637419 66.18106079 37.88787842 C67.92775321 38.89279104 69.67671905 39.89374896 71.42578125 40.89453125 C72.43036377 41.47050049 73.43494629 42.04646973 74.4699707 42.63989258 C77.0100452 44.09816613 77.0100452 44.09816613 80 45 C80 45.66 80 46.32 80 47 C82.31 47.66 84.62 48.32 87 49 C87 49.66 87 50.32 87 51 C89.31 51.66 91.62 52.32 94 53 C94 53.66 94 54.32 94 55 C96.31 55.66 98.62 56.32 101 57 C101 57.66 101 58.32 101 59 C102.65 59.33 104.3 59.66 106 60 C106 60.66 106 61.32 106 62 C108.31 62.66 110.62 63.32 113 64 C113 64.66 113 65.32 113 66 C113.76699219 66.20109375 114.53398438 66.4021875 115.32421875 66.609375 C120.51210894 68.57206247 125.0616853 71.40803248 129.8125 74.25 C138.46052314 79.3634287 147.15686788 84.36775005 155.9375 89.25 C163.32070134 93.36701397 170.69374805 97.49754228 178 101.75 C178.70632568 102.15637695 179.41265137 102.56275391 180.14038086 102.98144531 C184.88193056 105.76386111 184.88193056 105.76386111 186 108 C186.09605965 110.93531935 186.13008703 113.84685148 186.12025452 116.78237915 C186.12110894 117.70288728 186.12196337 118.62339541 186.12284368 119.57179773 C186.12449876 122.67500046 186.11897663 125.77814986 186.11352539 128.88134766 C186.1132435 131.09836323 186.11340129 133.31537889 186.1139679 135.53239441 C186.11425579 141.5672156 186.1083603 147.60201707 186.10139394 153.63683367 C186.09515912 159.93760612 186.0945565 166.23837899 186.09336853 172.53915405 C186.09060967 183.11985612 186.0843558 193.7005517 186.07543945 204.28125 C186.06626406 215.18066369 186.05918385 226.08007541 186.05493164 236.97949219 C186.05466892 237.65104075 186.05440619 238.3225893 186.05413551 239.01448782 C186.0528305 242.38336257 186.05156678 245.75223733 186.05032361 249.12111211 C186.03986007 277.08074647 186.02226135 305.04037272 186 333 C186.94182129 333.3079248 187.88364258 333.61584961 188.85400391 333.93310547 C191.51623423 334.83594161 193.88601951 335.8375963 196.375 337.125 C197.06335938 337.47820312 197.75171875 337.83140625 198.4609375 338.1953125 C198.96882812 338.46085937 199.47671875 338.72640625 200 339 C200 339.66 200 340.32 200 341 C201.65 341.33 203.3 341.66 205 342 C205 342.66 205 343.32 205 344 C207.31 344.66 209.62 345.32 212 346 C212 346.66 212 347.32 212 348 C213.65 348.33 215.3 348.66 217 349 C217 349.66 217 350.32 217 351 C219.31 351.66 221.62 352.32 224 353 C224 353.66 224 354.32 224 355 C225.65 355.33 227.3 355.66 229 356 C229 356.66 229 357.32 229 358 C231.31 358.66 233.62 359.32 236 360 C236 360.66 236 361.32 236 362 C237.65 362.33 239.3 362.66 241 363 C241 363.66 241 364.32 241 365 C243.31 365.66 245.62 366.32 248 367 C248 367.66 248 368.32 248 369 C249.65 369.33 251.3 369.66 253 370 C253 370.66 253 371.32 253 372 C253.680625 372.268125 254.36125 372.53625 255.0625 372.8125 C258.39710809 374.16053306 261.69743237 375.57536298 265 377 C265 377.66 265 378.32 265 379 C265.7307373 379.2789209 266.46147461 379.5578418 267.21435547 379.84521484 C269.79214921 380.91383574 272.14289235 382.10574199 274.5703125 383.4765625 C275.89421997 384.22317139 275.89421997 384.22317139 277.24487305 384.98486328 C278.19531494 385.5261084 279.14575684 386.06735352 280.125 386.625 C281.12764893 387.19331543 282.13029785 387.76163086 283.16333008 388.34716797 C291.64562499 393.17798845 300.03762961 398.15654219 308.41958618 403.15866089 C316.42649381 407.93350794 324.49821825 412.53973529 332.69580078 416.9777832 C339.9824581 420.9407152 347.11538736 425.14748888 354.22973633 429.41088867 C355.0833374 429.92111572 355.93693848 430.43134277 356.81640625 430.95703125 C357.60642721 431.44544306 358.39644817 431.93385487 359.21040916 432.43706703 C361.94489483 434.06507307 361.94489483 434.06507307 364.87162209 435.05792809 C368.14166211 436.36536668 370.41872791 437.58710232 373 440 C374.60049514 445.20115971 374.32882701 450.31974191 374.16162109 455.69384766 C374.15263311 457.29901365 374.14915579 458.90421863 374.15079308 460.50940895 C374.14727376 463.92345986 374.11442298 467.33547511 374.06041718 470.7490921 C373.98754547 475.89465577 374.03065271 481.03412893 374.10821533 486.17938232 C374.13339929 487.90199877 374.15851277 489.62461625 374.18355751 491.34723473 C374.20239459 492.64189883 374.20239459 492.64189883 374.22161222 493.96271777 C374.4645276 512.45451424 374.48739966 530.95115603 374.54844093 549.44426537 C374.58766235 561.09317557 374.65692986 572.74114669 374.76298869 584.38964403 C374.83573571 592.66129239 374.87424988 600.932681 374.88746679 609.20463622 C374.89630832 614.11877597 374.92039345 619.03172329 374.98213577 623.94550705 C375.03925295 628.53792656 375.05409315 633.1285328 375.03626251 637.72125435 C375.03714146 639.40235699 375.05341999 641.0835335 375.08630753 642.76431465 C375.32174239 655.45204166 375.32174239 655.45204166 372.04282856 659.29214096 C369.74015962 660.85781153 367.57477388 661.95772121 365 663 C363.91001709 663.63615234 362.82003418 664.27230469 361.69702148 664.92773438 C360.17443726 665.75241211 360.17443726 665.75241211 358.62109375 666.59375 C357.46528809 667.22418213 356.30948242 667.85461426 355.11865234 668.50415039 C354.51897644 668.82916534 353.91930054 669.1541803 353.30145264 669.48904419 C343.40031042 674.85914698 333.57938064 680.3427646 323.875 686.0625 C314.28475781 691.71035547 304.59297434 697.15303359 294.8527832 702.53759766 C285.46618306 707.72938181 276.14336324 713.0245763 266.84228516 718.36767578 C261.31462934 721.54220823 255.78304144 724.70986656 250.25 727.875 C249.65767578 728.21389252 249.06535156 728.55278503 248.45507812 728.90194702 C238.99569344 734.31178997 229.50845519 739.66993549 219.98193359 744.9609375 C214.95512758 747.75801391 209.96287911 750.59661288 205.01953125 753.5390625 C204.06747803 754.10077148 203.1154248 754.66248047 202.13452148 755.24121094 C200.35165175 756.29676825 198.57582011 757.36434657 196.80883789 758.44628906 C196.01340576 758.91518555 195.21797363 759.38408203 194.3984375 759.8671875 C193.71442871 760.28081543 193.03041992 760.69444336 192.32568359 761.12060547 C187.98498346 762.76192416 184.29967237 762.54177197 180.04760742 760.76928711 C179.07670166 760.1944458 178.1057959 759.61960449 177.10546875 759.02734375 C175.99848633 758.38265137 174.89150391 757.73795898 173.75097656 757.07373047 C172.56302726 756.36186016 171.37520503 755.64977778 170.1875 754.9375 C168.94196198 754.20569206 167.69552675 753.47540921 166.44824219 752.74658203 C163.88166522 751.24453228 161.31976768 749.73493997 158.76123047 748.21923828 C154.18589762 745.51296136 149.57653575 742.86680961 144.96606445 740.22094727 C134.62624497 734.28612793 124.3273569 728.28122689 114.03369141 722.2668457 C102.38314679 715.4638519 90.6908046 708.73348716 79 702 C65.3398169 694.13222095 51.69002945 686.24829048 38.08032227 678.29345703 C29.22755283 673.1229169 20.3485288 667.99854106 11.46289062 662.88476562 C10.42970703 662.28986328 9.39652344 661.69496094 8.33203125 661.08203125 C6.96655151 660.29662964 6.96655151 660.29662964 5.57348633 659.49536133 C3.79498128 658.46193533 2.04084544 657.38582438 0.30859375 656.27661133 C-1.90902243 654.71951401 -1.90902243 654.71951401 -4.26953125 655.4921875 C-8.92508261 658.06306421 -13.47865834 660.78530155 -18.02539062 663.54296875 C-18.76337891 663.98511719 -19.50136719 664.42726563 -20.26171875 664.8828125 C-20.93162842 665.28902832 -21.60153809 665.69524414 -22.29174805 666.11376953 C-24 667 -24 667 -26 667 C-26 667.66 -26 668.32 -26 669 C-26.94875 669.37125 -27.8975 669.7425 -28.875 670.125 C-33.13166478 671.92690104 -36.95844458 674.33525379 -40.86328125 676.79296875 C-43 678 -43 678 -45 678 C-45 678.66 -45 679.32 -45 680 C-45.98097656 680.39574219 -46.96195312 680.79148437 -47.97265625 681.19921875 C-52.33114733 683.07119776 -56.3569573 685.40465336 -60.4375 687.8125 C-61.66424438 688.52937988 -61.66424438 688.52937988 -62.91577148 689.26074219 C-64.68669486 690.29600532 -66.45659903 691.33301346 -68.22558594 692.37158203 C-72.99926377 695.17345031 -77.78146825 697.96070555 -82.5625 700.75 C-83.56531006 701.33563721 -84.56812012 701.92127441 -85.60131836 702.5246582 C-94.14581485 707.51147937 -102.7145867 712.45553914 -111.28735352 717.39355469 C-119.51861729 722.13780601 -127.72818129 726.91825695 -135.93017578 731.71289062 C-141.25503466 734.82309429 -146.58676795 737.9209229 -151.9296875 741 C-152.80140594 741.50237183 -152.80140594 741.50237183 -153.69073486 742.01489258 C-156.49211183 743.62873886 -159.29440788 745.24096889 -162.09765625 746.8515625 C-166.90042123 749.61513069 -171.68705678 752.39855871 -176.43359375 755.2578125 C-179.65210274 757.19613024 -182.86209743 759.12358316 -186.1875 760.875 C-186.94417969 761.28492188 -187.70085937 761.69484375 -188.48046875 762.1171875 C-192.84469202 763.6463572 -196.56530261 763.51363325 -200.90234375 761.9609375 C-201.90394531 761.43757812 -202.90554687 760.91421875 -203.9375 760.375 C-204.52120361 760.07142578 -205.10490723 759.76785156 -205.70629883 759.45507812 C-212.6847256 755.7557985 -219.46705148 751.69196523 -226.27050781 747.68359375 C-234.012499 743.12863871 -241.82511847 738.71850271 -249.6875 734.375 C-260.20461457 728.56146359 -270.66380618 722.65876909 -281.08300781 716.671875 C-284.46571488 714.73307537 -287.85367303 712.80362478 -291.2421875 710.875 C-293.14135363 709.79315824 -295.04043304 708.71116441 -296.93948364 707.62911987 C-298.17036486 706.92817438 -299.40153713 706.2277397 -300.63302612 705.52786255 C-312.70649221 698.66490837 -312.70649221 698.66490837 -318.32299805 694.92553711 C-320.18615091 693.89726334 -321.92328152 693.42953863 -324 693 C-324 692.34 -324 691.68 -324 691 C-326.31 690.34 -328.62 689.68 -331 689 C-331 688.34 -331 687.68 -331 687 C-333.31 686.34 -335.62 685.68 -338 685 C-338 684.34 -338 683.68 -338 683 C-338.67933594 682.75378906 -339.35867188 682.50757813 -340.05859375 682.25390625 C-344.22287223 680.4786959 -348.03442896 678.14493956 -351.91601562 675.83398438 C-354.89197231 674.09345187 -357.56829934 672.55626071 -361 672 C-361 671.34 -361 670.68 -361 670 C-361.98419922 669.64421875 -361.98419922 669.64421875 -362.98828125 669.28125 C-366.88573286 667.62319017 -370.50552371 665.58589788 -374.1875 663.5 C-374.91130859 663.09652344 -375.63511719 662.69304688 -376.38085938 662.27734375 C-377.07373047 661.88675781 -377.76660156 661.49617187 -378.48046875 661.09375 C-379.10848389 660.73990234 -379.73649902 660.38605469 -380.38354492 660.02148438 C-382 659 -382 659 -384 657 C-384.22829056 654.33410454 -384.22829056 654.33410454 -384.19805908 650.87863159 C-384.18901613 648.92176013 -384.18901613 648.92176013 -384.1797905 646.92535591 C-384.16322285 645.47090707 -384.14658452 644.01645903 -384.12988281 642.56201172 C-384.11980625 641.03343787 -384.11079457 639.50485668 -384.10277176 637.97627068 C-384.08456919 634.69137648 -384.06141703 631.40656642 -384.03517151 628.12172699 C-383.99720986 623.0582043 -383.98515074 617.9948647 -383.98083496 612.93121338 C-383.9800887 612.08451887 -383.97934244 611.23782436 -383.97857356 610.36547244 C-383.97712109 608.62737008 -383.97571866 606.88926768 -383.97436476 605.15116525 C-383.95550862 586.50912432 -383.88688532 567.86712387 -383.81609726 549.22522163 C-383.77601183 538.54776785 -383.74371946 527.87039255 -383.72900391 517.19287109 C-383.71601696 507.78101673 -383.6891749 498.36932381 -383.64538693 488.95756042 C-383.62279711 484.00144583 -383.6070883 479.04552995 -383.60811615 474.08935928 C-383.60885854 469.45789134 -383.59107896 464.8268707 -383.55883217 460.19551849 C-383.5503001 458.49755517 -383.54860557 456.79954187 -383.55419731 455.10156631 C-383.56080559 452.78773386 -383.54299897 450.47533914 -383.51898193 448.16165161 C-383.51529476 446.86736803 -383.51160759 445.57308445 -383.50780869 444.23958015 C-382.9109424 440.4318545 -381.9973771 439.33031759 -379 437 C-377.12299684 435.7956553 -375.20374889 434.65586419 -373.2578125 433.56640625 C-372.12053711 432.92429199 -370.98326172 432.28217773 -369.81152344 431.62060547 C-368.91040833 431.11759918 -368.91040833 431.11759918 -367.99108887 430.60443115 C-364.80681969 428.82649372 -361.63484927 427.02680837 -358.4609375 425.23046875 C-357.82240845 424.86987366 -357.18387939 424.50927856 -356.52600098 424.13775635 C-350.89282461 420.95243017 -345.31220052 417.68269913 -339.75 414.375 C-332.2259104 409.90688227 -324.68594177 405.46801606 -317.125 401.0625 C-316.12331787 400.47879639 -315.12163574 399.89509277 -314.08959961 399.29370117 C-312.06325998 398.11325699 -310.03681134 396.93299991 -308.01025391 395.75292969 C-294.16173212 387.68866477 -280.3230783 379.60778892 -266.5 371.5 C-251.52484491 362.71647191 -236.52969677 353.96746269 -221.52734375 345.23046875 C-220.45589111 344.60615967 -219.38443848 343.98185059 -218.28051758 343.33862305 C-216.25073487 342.15593109 -214.2206488 340.97375953 -212.19018555 339.79223633 C-211.26375244 339.25236084 -210.33731934 338.71248535 -209.3828125 338.15625 C-208.18229248 337.45725586 -208.18229248 337.45725586 -206.95751953 336.74414062 C-205.98153809 336.16857422 -205.00555664 335.59300781 -204 335 C-203.19539306 334.7528273 -202.39078611 334.5056546 -201.56179714 334.25099182 C-198.18947044 332.92234884 -196.37980762 331.7663194 -194 329 C-191.98963806 322.38613676 -192.77648543 314.94937414 -192.91577148 308.12695312 C-192.9234649 305.95850218 -192.9266275 303.79003112 -192.92559814 301.62156677 C-192.93260783 296.95392963 -192.97069587 292.28794114 -193.03259087 287.62071228 C-193.12926465 280.24216846 -193.15097408 272.86457351 -193.16139221 265.48547363 C-193.19150914 251.15546521 -193.29264388 236.82642314 -193.40597534 222.49686432 C-193.54984036 204.25688932 -193.67872326 186.01735866 -193.70912606 167.77679205 C-193.72409258 160.43995622 -193.78356819 153.10522535 -193.87718379 145.76898956 C-193.92661927 141.20712858 -193.93902821 136.64570972 -193.94143677 132.08360481 C-193.95026868 129.96709356 -193.97464354 127.85058195 -194.01564217 125.73444939 C-194.31454646 109.71138988 -194.31454646 109.71138988 -191.04476452 105.45450592 C-188.71450635 103.8660111 -186.65802465 102.90651106 -184 102 C-182.41046509 101.04577148 -182.41046509 101.04577148 -180.78881836 100.07226562 C-179.81565674 99.52248047 -178.84249512 98.97269531 -177.83984375 98.40625 C-176.17356934 97.46048096 -176.17356934 97.46048096 -174.47363281 96.49560547 C-173.89762329 96.17058044 -173.32161377 95.84555542 -172.72814941 95.51068115 C-169.62056315 93.75669244 -166.51965351 91.99095934 -163.41796875 90.2265625 C-162.7904068 89.86990509 -162.16284485 89.51324768 -161.51626587 89.14578247 C-155.5701505 85.76327792 -149.65530862 82.32823319 -143.75 78.875 C-142.28784058 78.02023071 -142.28784058 78.02023071 -140.79614258 77.14819336 C-138.83945466 76.00364205 -136.88299151 74.85870638 -134.92675781 73.71337891 C-120.55043686 65.29721103 -106.15029945 56.9239385 -91.71582031 48.60791016 C-81.44463308 42.68717951 -71.20348192 36.7156847 -60.96777344 30.73388672 C-54.99648808 27.2452335 -49.02184802 23.76232817 -43.04785156 20.27832031 C-37.77298751 17.20175107 -32.49910593 14.12351362 -27.2265625 11.04296875 C-26.12183594 10.39779297 -25.01710938 9.75261719 -23.87890625 9.08789062 C-21.74840242 7.84360478 -19.61818301 6.59883178 -17.48828125 5.35351562 C-16.53566406 4.79728516 -15.58304687 4.24105469 -14.6015625 3.66796875 C-13.75932129 3.17578857 -12.91708008 2.6836084 -12.04931641 2.17651367 C-7.9697362 -0.16557556 -4.66580816 -0.79205856 0 0 Z " fill="#FAFCFD" transform="translate(407,23)"/>
<path d="M0 0 C5.51398902 2.73715476 10.86881134 5.7623956 16.25 8.75 C16.84824585 9.08191345 17.4464917 9.4138269 18.06286621 9.75579834 C27.51893007 15.007458 36.8908319 20.38985191 46.21777344 25.86816406 C52.94135582 29.81340662 59.70436842 33.6803204 66.5 37.5 C74.64307136 42.08017007 82.74346034 46.7280605 90.8125 51.4375 C91.78445313 52.0046875 92.75640625 52.571875 93.7578125 53.15625 C101.26717584 57.54969494 101.26717584 57.54969494 104.77880859 59.70751953 C105.66004395 60.24876465 106.5412793 60.79000977 107.44921875 61.34765625 C108.22998779 61.83371338 109.01075684 62.31977051 109.81518555 62.82055664 C111.89862187 63.94527235 113.68677433 64.54933742 116 65 C116 65.66 116 66.32 116 67 C118.31 67.66 120.62 68.32 123 69 C123 69.66 123 70.32 123 71 C125.31 71.66 127.62 72.32 130 73 C130 73.66 130 74.32 130 75 C130.70761475 75.26699707 131.41522949 75.53399414 132.14428711 75.80908203 C135.12160549 77.05071314 137.86982387 78.49171455 140.69140625 80.0546875 C142.34257446 80.96903564 142.34257446 80.96903564 144.02709961 81.90185547 C145.20567845 82.55936953 146.38414297 83.21708852 147.5625 83.875 C148.15837921 84.20614807 148.75425842 84.53729614 149.36819458 84.878479 C158.33270595 89.86215076 167.18774521 95.00018911 175.90649414 100.40576172 C177.03365845 101.09822998 177.03365845 101.09822998 178.18359375 101.8046875 C178.82868896 102.20671387 179.47378418 102.60874023 180.13842773 103.02294922 C182.26853076 104.23437174 182.26853076 104.23437174 186 105 C186 178.92 186 252.84 186 329 C181 328 181 328 179 327 C179 326.34 179 325.68 179 325 C178.27232422 324.88785156 177.54464844 324.77570313 176.79492188 324.66015625 C173.86303256 323.9676485 171.86237065 322.97403086 169.28125 321.4375 C168.36408203 320.89673828 167.44691406 320.35597656 166.50195312 319.79882812 C165.51130859 319.20521484 164.52066406 318.61160156 163.5 318 C161.33336984 316.71868826 159.16670151 315.43744108 157 314.15625 C155.8475472 313.47153767 154.69520514 312.78663893 153.54296875 312.1015625 C148.15588509 308.90181671 142.74574711 305.74135726 137.33822632 302.57632446 C134.87424559 301.13360617 132.41141241 299.68893474 129.9485321 298.24433899 C116.96401807 290.62895254 103.95747294 283.05130631 90.94921875 275.4765625 C75.41336026 266.42687501 59.92541277 257.2987555 44.46484375 248.12109375 C42.1849501 246.76813771 39.90500167 245.41527399 37.625 244.0625 C36.50327393 243.39677979 35.38154785 242.73105957 34.22583008 242.04516602 C25.26162422 236.73182735 16.2664676 231.47380972 7.24853516 226.25219727 C6.30800293 225.70619873 5.3674707 225.1602002 4.3984375 224.59765625 C3.57005371 224.11820557 2.74166992 223.63875488 1.88818359 223.14477539 C0 222 0 222 -1 221 C-1.09771608 219.61110669 -1.12631706 218.21727751 -1.12698364 216.82495117 C-1.12980598 215.92060711 -1.13262833 215.01626305 -1.13553619 214.08451462 C-1.13350945 213.08080448 -1.1314827 212.07709435 -1.12939453 211.04296875 C-1.13112419 209.98734364 -1.13285385 208.93171852 -1.13463593 207.84410477 C-1.1390313 204.2918878 -1.13602774 200.73971768 -1.1328125 197.1875 C-1.13382775 194.6710407 -1.13516697 192.15458152 -1.1368103 189.63812256 C-1.13924668 183.5415517 -1.13636695 177.44500446 -1.13056505 171.34843755 C-1.12591973 166.42715616 -1.12352111 161.50587808 -1.12231445 156.58459473 C-1.10704554 104.38576947 -0.69573038 52.19431975 0 0 Z " fill="#1588DB" transform="translate(402,27)"/>
<path d="M0 0 C2.52368164 1.29101562 2.52368164 1.29101562 5.16015625 2.90625 C6.11857422 3.48503906 7.07699219 4.06382812 8.06445312 4.66015625 C9.05380859 5.26730469 10.04316406 5.87445312 11.0625 6.5 C13.02972768 7.7025493 14.99967627 8.90066177 16.97265625 10.09375 C17.84156494 10.62677734 18.71047363 11.15980469 19.60571289 11.70898438 C21.78098654 12.88190648 23.58612461 13.54414287 26 14 C26 14.66 26 15.32 26 16 C26.71341553 16.26989746 27.42683105 16.53979492 28.16186523 16.81787109 C31.03978214 18.0165699 33.68702607 19.3975562 36.41015625 20.9140625 C37.4679126 21.501875 38.52566895 22.0896875 39.61547852 22.6953125 C41.32175415 23.65050781 41.32175415 23.65050781 43.0625 24.625 C44.26680964 25.29693965 45.47115604 25.96881339 46.67553711 26.640625 C62.29516797 35.36634808 77.83015277 44.24447231 93.296875 53.23828125 C94.4868671 53.92908932 95.67688944 54.6198453 96.86694336 55.31054688 C99.10165806 56.60897106 101.33437142 57.91084825 103.56469727 59.21679688 C108.61447513 62.15114365 113.55658174 64.87330486 119 67 C119 67.66 119 68.32 119 69 C121.31 69.66 123.62 70.32 126 71 C126 71.66 126 72.32 126 73 C128.31 73.66 130.62 74.32 133 75 C133 75.66 133 76.32 133 77 C135.31 77.66 137.62 78.32 140 79 C140 79.66 140 80.32 140 81 C140.721875 81.268125 141.44375 81.53625 142.1875 81.8125 C145 83 145 83 147.5625 84.5625 C149.78146478 85.87112025 151.49075157 86.53532436 154 87 C154 87.66 154 88.32 154 89 C156.31 89.66 158.62 90.32 161 91 C161 91.66 161 92.32 161 93 C161.78375 93.144375 162.5675 93.28875 163.375 93.4375 C166 94 166 94 168 95 C168 95.66 168 96.32 168 97 C168.680625 97.2475 169.36125 97.495 170.0625 97.75 C173.56865083 99.24197908 176.71620368 101.06835511 180 103 C179.69946289 104.86962891 179.69946289 104.86962891 179 107 C176.49744183 108.63569897 174.08526419 110.01368672 171.4375 111.375 C169.77850054 112.26161996 168.1210242 113.15109405 166.46484375 114.04296875 C165.57651855 114.51911621 164.68819336 114.99526367 163.77294922 115.48583984 C158.95531179 118.11649553 154.23167455 120.90608205 149.5 123.6875 C141.01837701 128.65735484 132.51931915 133.59503379 124 138.5 C115.65191088 143.30833565 107.31756695 148.13905753 99 153 C87.45277514 159.74713114 75.87097881 166.4333937 64.28222656 173.10888672 C58.85340056 176.23680149 53.42682059 179.36860767 48 182.5 C45.84896371 183.74089474 43.69792203 184.98178014 41.546875 186.22265625 C35.90882879 189.47530994 30.27173189 192.72960616 24.63476562 195.98413086 C21.35624421 197.87618581 18.07667593 199.76641412 14.796875 201.65625 C11.30290348 203.66964826 7.81259698 205.68896049 4.328125 207.71875 C3.0520913 208.45834707 1.77605046 209.19793184 0.5 209.9375 C-0.5415625 210.54464844 -1.583125 211.15179687 -2.65625 211.77734375 C-5 213 -5 213 -7 213 C-7 213.66 -7 214.32 -7 215 C-8.32 215 -9.64 215 -11 215 C-11 214.34 -11 213.68 -11 213 C-11.70511719 212.89816406 -12.41023437 212.79632812 -13.13671875 212.69140625 C-16.41059645 211.90085188 -18.88584467 210.59476266 -21.8125 208.9375 C-22.78832031 208.38964844 -23.76414063 207.84179688 -24.76953125 207.27734375 C-25.50558594 206.85582031 -26.24164063 206.43429687 -27 206 C-27 205.34 -27 204.68 -27 204 C-29.31 203.34 -31.62 202.68 -34 202 C-34 201.34 -34 200.68 -34 200 C-34.78375 199.855625 -35.5675 199.71125 -36.375 199.5625 C-39 199 -39 199 -41 198 C-41 197.34 -41 196.68 -41 196 C-42.06250977 195.84398315 -42.06250977 195.84398315 -43.14648438 195.68481445 C-46.37395486 194.91025467 -48.76484912 193.67070082 -51.65625 192.04296875 C-53.29678345 191.12559937 -53.29678345 191.12559937 -54.97045898 190.18969727 C-56.14708932 189.52250387 -57.32360008 188.85509957 -58.5 188.1875 C-59.72375205 187.49940678 -60.9477953 186.81183118 -62.17211914 186.12475586 C-65.78699367 184.09293506 -69.39413788 182.04777355 -73 180 C-73.94601074 179.46342773 -74.89202148 178.92685547 -75.86669922 178.37402344 C-80.9691608 175.47613979 -86.06084311 172.55975978 -91.14892578 169.63671875 C-96.72030032 166.43835474 -102.29772223 163.25055466 -107.875 160.0625 C-108.75785172 159.55772629 -108.75785172 159.55772629 -109.65853882 159.04275513 C-121.41613951 152.32126847 -133.201384 145.64924932 -145 139 C-145 138.34 -145 137.68 -145 137 C-145.70511719 136.89816406 -146.41023438 136.79632812 -147.13671875 136.69140625 C-150.41059645 135.90085188 -152.88584467 134.59476266 -155.8125 132.9375 C-156.78832031 132.38964844 -157.76414063 131.84179688 -158.76953125 131.27734375 C-159.50558594 130.85582031 -160.24164063 130.43429687 -161 130 C-161 129.34 -161 128.68 -161 128 C-161.73371826 127.88213135 -162.46743652 127.7642627 -163.22338867 127.64282227 C-165.99997248 127.00000637 -167.95912584 126.11675582 -170.42578125 124.71484375 C-171.61977539 124.04291992 -171.61977539 124.04291992 -172.83789062 123.35742188 C-173.65451172 122.88884766 -174.47113281 122.42027344 -175.3125 121.9375 C-176.14845703 121.46505859 -176.98441406 120.99261719 -177.84570312 120.50585938 C-179.90069265 119.34332244 -181.95187737 118.17457909 -184 117 C-184 116.34 -184 115.68 -184 115 C-184.70125 114.896875 -185.4025 114.79375 -186.125 114.6875 C-189.39137647 113.90640997 -192.0471852 112.57941257 -195 111 C-193.99382318 108.32423308 -193.45785454 107.2214892 -190.8359375 105.953125 C-190.02382812 105.72109375 -189.21171875 105.4890625 -188.375 105.25 C-187.55773437 105.00765625 -186.74046875 104.7653125 -185.8984375 104.515625 C-185.27195312 104.34546875 -184.64546875 104.1753125 -184 104 C-184 103.34 -184 102.68 -184 102 C-180.535 101.01 -180.535 101.01 -177 100 C-177 99.34 -177 98.68 -177 98 C-173.535 97.01 -173.535 97.01 -170 96 C-170 95.34 -170 94.68 -170 94 C-166.535 93.01 -166.535 93.01 -163 92 C-163 91.34 -163 90.68 -163 90 C-159.535 89.01 -159.535 89.01 -156 88 C-156 87.34 -156 86.68 -156 86 C-152.535 85.01 -152.535 85.01 -149 84 C-149 83.34 -149 82.68 -149 82 C-148.401875 81.896875 -147.80375 81.79375 -147.1875 81.6875 C-144.96953929 81.18192638 -144.96953929 81.18192638 -143.70727539 79.66113281 C-141.51566881 77.52875884 -139.1603101 76.23625637 -136.49609375 74.734375 C-135.37654297 74.09951172 -134.25699219 73.46464844 -133.10351562 72.81054688 C-131.88151162 72.12369578 -130.65950638 71.43684688 -129.4375 70.75 C-127.52395465 69.66711798 -125.61142063 68.58246344 -123.69888306 67.49780273 C-122.39026896 66.7558546 -121.08132576 66.01448666 -119.77206421 65.27368164 C-113.49304359 61.71984671 -107.24449551 58.11411697 -101 54.5 C-92.56625901 49.62475609 -84.11711639 44.77735781 -75.65460205 39.95230103 C-66.28859066 34.61142273 -56.93855157 29.24451836 -47.625 23.8125 C-46.65965332 23.25022705 -45.69430664 22.6879541 -44.69970703 22.10864258 C-39.69717525 19.18719439 -34.71643943 16.23369985 -29.7578125 13.23828125 C-28.24453369 12.32888794 -28.24453369 12.32888794 -26.70068359 11.40112305 C-24.77973887 10.24483703 -22.86313858 9.08129252 -20.95166016 7.90942383 C-20.09620605 7.39532959 -19.24075195 6.88123535 -18.359375 6.3515625 C-17.61139648 5.89604004 -16.86341797 5.44051758 -16.09277344 4.97119141 C-14 4 -14 4 -10 4 C-10 3.34 -10 2.68 -10 2 C-6.28037 -0.86942886 -4.45258924 -1.28472458 0 0 Z " fill="#042C91" transform="translate(221,567)"/>
<path d="M0 0 C2.75568406 1.17808055 5.38158795 2.54460472 8 4 C8 4.66 8 5.32 8 6 C10.31 6.66 12.62 7.32 15 8 C15 8.66 15 9.32 15 10 C15.64839844 10.22558594 16.29679688 10.45117188 16.96484375 10.68359375 C21.85693019 12.80538671 26.30133175 15.68571694 30.84960938 18.45507812 C31.58115234 18.89400391 32.31269531 19.33292969 33.06640625 19.78515625 C33.72584229 20.18613525 34.38527832 20.58711426 35.06469727 21.00024414 C37.0352203 22.01819441 38.83445493 22.55362947 41 23 C41 23.66 41 24.32 41 25 C41.71446289 25.27005859 42.42892578 25.54011719 43.16503906 25.81835938 C46.02863414 27.011935 48.65468893 28.38826523 51.359375 29.90625 C52.38345459 30.47980225 53.40753418 31.05335449 54.46264648 31.64428711 C55.54747314 32.25667236 56.6322998 32.86905762 57.75 33.5 C58.87672119 34.13365479 60.00344238 34.76730957 61.16430664 35.42016602 C67.95661565 39.25081675 74.7122246 43.13574168 81.41967773 47.11279297 C87.69062125 50.82995521 93.99772556 54.4828512 100.3125 58.125 C101.41021729 58.75825195 102.50793457 59.39150391 103.63891602 60.04394531 C109.48143273 63.40994889 115.33111832 66.76272185 121.19140625 70.09765625 C122.99094281 71.12215536 124.79045476 72.14669766 126.5899353 73.17129517 C127.77568928 73.84632332 128.96158106 74.52110946 130.14761353 75.19564819 C138.83998132 80.14234383 147.45499651 85.20057785 155.96240234 90.4597168 C156.70699707 90.91515869 157.4515918 91.37060059 158.21875 91.83984375 C159.1768457 92.43333618 159.1768457 92.43333618 160.15429688 93.03881836 C162.08738747 94.04550853 163.87202241 94.55961704 166 95 C166 95.66 166 96.32 166 97 C168.31 97.66 170.62 98.32 173 99 C173 99.66 173 100.32 173 101 C173.721875 101.268125 174.44375 101.53625 175.1875 101.8125 C177.98122462 102.99207262 180.40366234 104.4421974 183 106 C184.65369357 106.69822617 186.31727014 107.37498605 188 108 C188 108.99 188 109.98 188 111 C186.35 111.33 184.7 111.66 183 112 C182.67 112.99 182.34 113.98 182 115 C180.02 115.33 178.04 115.66 176 116 C175.67 116.99 175.34 117.98 175 119 C173.02 119.33 171.04 119.66 169 120 C168.67 120.99 168.34 121.98 168 123 C166.02 123.33 164.04 123.66 162 124 C161.67 124.99 161.34 125.98 161 127 C159.328125 127.84375 159.328125 127.84375 157.25 128.5 C153.86220745 129.64747812 151.05069944 131.11574446 148 133 C147.34 133 146.68 133 146 133 C145.67 133.99 145.34 134.98 145 136 C143.02 136.33 141.04 136.66 139 137 C138.67 137.99 138.34 138.98 138 140 C136.02 140.33 134.04 140.66 132 141 C131.67 141.99 131.34 142.98 131 144 C129.02 144.33 127.04 144.66 125 145 C124.67 145.99 124.34 146.98 124 148 C122.328125 148.84375 122.328125 148.84375 120.25 149.5 C116.86220745 150.64747812 114.05069944 152.11574446 111 154 C110.34 154 109.68 154 109 154 C108.67 154.99 108.34 155.98 108 157 C106.02 157.33 104.04 157.66 102 158 C101.67 158.99 101.34 159.98 101 161 C99.02 161.33 97.04 161.66 95 162 C94.67 162.99 94.34 163.98 94 165 C92.02 165.33 90.04 165.66 88 166 C87.67 166.99 87.34 167.98 87 169 C85.328125 169.84375 85.328125 169.84375 83.25 170.5 C79.86220745 171.64747812 77.05069944 173.11574446 74 175 C73.34 175 72.68 175 72 175 C71.67 175.99 71.34 176.98 71 178 C69.02 178.33 67.04 178.66 65 179 C64.67 179.99 64.34 180.98 64 182 C62.02 182.33 60.04 182.66 58 183 C57.67 183.99 57.34 184.98 57 186 C55.02 186.33 53.04 186.66 51 187 C50.67 187.99 50.34 188.98 50 190 C48.328125 190.84375 48.328125 190.84375 46.25 191.5 C42.86220745 192.64747812 40.05069944 194.11574446 37 196 C36.34 196 35.68 196 35 196 C34.67 196.99 34.34 197.98 34 199 C32.02 199.33 30.04 199.66 28 200 C27.67 200.99 27.34 201.98 27 203 C25.02 203.33 23.04 203.66 21 204 C20.67 204.99 20.34 205.98 20 207 C18.02 207.33 16.04 207.66 14 208 C13.67 208.99 13.34 209.98 13 211 C11.2578125 211.94921875 11.2578125 211.94921875 9.125 212.6875 C8.07699219 213.06455078 8.07699219 213.06455078 7.0078125 213.44921875 C5 214 5 214 2 214 C2 213.34 2 212.68 2 212 C0.5459375 211.6596875 0.5459375 211.6596875 -0.9375 211.3125 C-6.11425215 209.83644033 -11.70586348 207.35387965 -15.5 203.4609375 C-17.2900613 201.71749238 -18.94180766 201.0027252 -21.25 200.0625 C-31.31533092 195.76752166 -31.31533092 195.76752166 -34.4296875 192.5 C-36.25961358 190.75201091 -37.91242634 190.01469347 -40.25 189.0625 C-50.31533092 184.76752166 -50.31533092 184.76752166 -53.4296875 181.5 C-55.25961358 179.75201091 -56.91242634 179.01469347 -59.25 178.0625 C-69.31533092 173.76752166 -69.31533092 173.76752166 -72.4296875 170.5 C-74.25961358 168.75201091 -75.91242634 168.01469347 -78.25 167.0625 C-88.31533092 162.76752166 -88.31533092 162.76752166 -91.4296875 159.5 C-93.25961358 157.75201091 -94.91242634 157.01469347 -97.25 156.0625 C-107.31533092 151.76752166 -107.31533092 151.76752166 -110.4296875 148.5 C-112.25961358 146.75201091 -113.91242634 146.01469347 -116.25 145.0625 C-126.31533092 140.76752166 -126.31533092 140.76752166 -129.4296875 137.5 C-131.25961358 135.75201091 -132.91242634 135.01469347 -135.25 134.0625 C-145.31533092 129.76752166 -145.31533092 129.76752166 -148.4296875 126.5 C-150.25961358 124.75201091 -151.91242634 124.01469347 -154.25 123.0625 C-164.31533092 118.76752166 -164.31533092 118.76752166 -167.4296875 115.5 C-169.25961358 113.75201091 -170.91242634 113.01469347 -173.25 112.0625 C-177.37380155 110.31444009 -181.15377697 108.29136691 -185 106 C-185 105.01 -185 104.02 -185 103 C-184.21463867 102.55197021 -183.42927734 102.10394043 -182.62011719 101.64233398 C-179.64524653 99.94487436 -176.67067451 98.24689358 -173.69628906 96.54858398 C-172.42036264 95.82019197 -171.14432491 95.09199489 -169.86816406 94.36401367 C-168.6284384 93.65678435 -167.38889552 92.94923451 -166.14953613 92.24136353 C-164.91400721 91.53594302 -163.67792208 90.83149582 -162.44128418 90.12802124 C-159.45246868 88.42337418 -156.48177552 86.69709828 -153.54101562 84.91064453 C-152.48076172 84.2711084 -151.42050781 83.63157227 -150.328125 82.97265625 C-149.39387695 82.399104 -148.45962891 81.82555176 -147.49707031 81.23461914 C-145 80 -145 80 -141 80 C-141 79.34 -141 78.68 -141 78 C-137.535 77.01 -137.535 77.01 -134 76 C-134 75.34 -134 74.68 -134 74 C-130.535 73.01 -130.535 73.01 -127 72 C-127 71.34 -127 70.68 -127 70 C-123.535 69.01 -123.535 69.01 -120 68 C-120 67.34 -120 66.68 -120 66 C-116.535 65.01 -116.535 65.01 -113 64 C-113 63.34 -113 62.68 -113 62 C-110.69 61.34 -108.38 60.68 -106 60 C-106 59.34 -106 58.68 -106 58 C-103.69 57.34 -101.38 56.68 -99 56 C-99 55.34 -99 54.68 -99 54 C-96.69 53.34 -94.38 52.68 -92 52 C-92 51.34 -92 50.68 -92 50 C-89.69 49.34 -87.38 48.68 -85 48 C-85 47.34 -85 46.68 -85 46 C-82.69 45.34 -80.38 44.68 -78 44 C-78 43.34 -78 42.68 -78 42 C-75.69 41.34 -73.38 40.68 -71 40 C-71 39.34 -71 38.68 -71 38 C-68.69 37.34 -66.38 36.68 -64 36 C-64 35.34 -64 34.68 -64 34 C-63.4225 33.9175 -62.845 33.835 -62.25 33.75 C-59.86893394 33.14781034 -59.86893394 33.14781034 -58.20678711 31.15625 C-55.7756755 28.78081271 -53.42431669 27.3722544 -50.44140625 25.75 C-49.34248047 25.14696045 -48.24355469 24.5439209 -47.11132812 23.92260742 C-46.5319751 23.60875092 -45.95262207 23.29489441 -45.35571289 22.9715271 C-42.93052888 21.65761061 -40.51361787 20.32882022 -38.09628296 19.00053406 C-36.86574553 18.3244427 -35.63480693 17.64908099 -34.4034729 16.97444153 C-28.56702634 13.77380798 -22.77647853 10.49509507 -17 7.1875 C-16.12931885 6.69056641 -15.2586377 6.19363281 -14.36157227 5.68164062 C-3.60469109 -0.48062548 -3.60469109 -0.48062548 0 0 Z " fill="#1588DB" transform="translate(589,567)"/>
<path d="M0 0 C-0.33 72.93 -0.66 145.86 -1 221 C-5.62 223.31 -10.24 225.62 -15 228 C-17.65783234 229.49044189 -20.2730473 230.98529492 -22.875 232.5625 C-24.3212608 233.42507263 -25.76789818 234.28701406 -27.21484375 235.1484375 C-27.98038574 235.60573242 -28.74592773 236.06302734 -29.53466797 236.53417969 C-34.15258437 239.27986894 -38.79605512 241.98184144 -43.4375 244.6875 C-44.45078369 245.27877686 -45.46406738 245.87005371 -46.50805664 246.47924805 C-53.927679 250.80441426 -61.36776423 255.09325145 -68.8125 259.375 C-77.70896312 264.49287568 -86.55646685 269.68657491 -95.375 274.9375 C-104.59529033 280.42560909 -113.86236121 285.81774652 -123.1875 291.125 C-132.08578393 296.18955791 -140.96842058 301.27862919 -149.8125 306.4375 C-150.79452393 307.01016602 -151.77654785 307.58283203 -152.78833008 308.17285156 C-157.12781792 310.71047722 -161.4555418 313.26433781 -165.75390625 315.87109375 C-166.45990967 316.29914307 -167.16591309 316.72719238 -167.89331055 317.16821289 C-169.16965312 317.94546574 -170.44347031 318.72688863 -171.71411133 319.51342773 C-175.78386739 322 -175.78386739 322 -178 322 C-178 322.66 -178 323.32 -178 324 C-179.32 324.33 -180.64 324.66 -182 325 C-182 252.07 -182 179.14 -182 104 C-181.01 104 -180.02 104 -179 104 C-179 103.34 -179 102.68 -179 102 C-175.37410189 99.87574801 -171.74448725 97.75803806 -168.11132812 95.64624023 C-166.87656828 94.9273133 -165.64283141 94.20662637 -164.41015625 93.48413086 C-162.63549222 92.4443781 -160.85721414 91.41106452 -159.078125 90.37890625 C-157.47565918 89.44413452 -157.47565918 89.44413452 -155.84082031 88.49047852 C-153.45783194 87.24020832 -151.58841882 86.56727911 -149 86 C-147.97803008 85.02246356 -146.98020375 84.0194119 -146 83 C-143.62835363 81.41890242 -141.65887072 80.1550284 -138.875 79.5 C-136.92829623 79.15347926 -136.92829623 79.15347926 -135.72045898 77.67626953 C-131.86490292 73.91974223 -126.69404387 71.55798914 -122.0625 68.875 C-120.96486328 68.22917969 -119.86722656 67.58335938 -118.73632812 66.91796875 C-117.67994141 66.30308594 -116.62355469 65.68820313 -115.53515625 65.0546875 C-114.569729 64.49249512 -113.60430176 63.93030273 -112.60961914 63.35107422 C-110.33690307 62.17442432 -108.46697192 61.5588073 -106 61 C-104.97803008 60.02246356 -103.98020375 59.0194119 -103 58 C-100.62835363 56.41890242 -98.65887072 55.1550284 -95.875 54.5 C-93.92829623 54.15347926 -93.92829623 54.15347926 -92.72045898 52.67626953 C-88.86490292 48.91974223 -83.69404387 46.55798914 -79.0625 43.875 C-77.96486328 43.22917969 -76.86722656 42.58335938 -75.73632812 41.91796875 C-74.67994141 41.30308594 -73.62355469 40.68820313 -72.53515625 40.0546875 C-71.569729 39.49249512 -70.60430176 38.93030273 -69.60961914 38.35107422 C-67.33690307 37.17442432 -65.46697192 36.5588073 -63 36 C-61.97803008 35.02246356 -60.98020375 34.0194119 -60 33 C-57.62835363 31.41890242 -55.65887072 30.1550284 -52.875 29.5 C-50.92829623 29.15347926 -50.92829623 29.15347926 -49.72045898 27.67626953 C-45.86490292 23.91974223 -40.69404387 21.55798914 -36.0625 18.875 C-34.96486328 18.22917969 -33.86722656 17.58335938 -32.73632812 16.91796875 C-31.67994141 16.30308594 -30.62355469 15.68820313 -29.53515625 15.0546875 C-28.569729 14.49249512 -27.60430176 13.93030273 -26.60961914 13.35107422 C-24.33690307 12.17442432 -22.46697192 11.5588073 -20 11 C-18.97803008 10.02246356 -17.98020375 9.0194119 -17 8 C-14.62835363 6.41890242 -12.65887072 5.1550284 -9.875 4.5 C-7.52923435 3.87446249 -6.61790218 2.76498419 -5 1 C-3 0 -3 0 0 0 Z " fill="#032B91" transform="translate(399,29)"/>
<path d="M0 0 C0.1318674 20.97014503 0.26230914 41.94029853 0.39115143 62.91046238 C0.45103567 72.65198234 0.5113494 82.39349926 0.57275391 92.13500977 C0.62640726 100.64702705 0.67917375 109.15904934 0.73096704 117.67107815 C0.75830165 122.1587244 0.78601758 126.6463674 0.81480408 131.13400459 C0.97237898 155.75630279 1.02903962 180.37720536 1 205 C-2.465 205.99 -2.465 205.99 -6 207 C-6 207.66 -6 208.32 -6 209 C-6.48017578 209.25990723 -6.96035156 209.51981445 -7.45507812 209.78759766 C-19.1483555 216.13199815 -30.70164204 222.67371553 -42.12695312 229.49072266 C-43.09568359 230.0635498 -44.06441406 230.63637695 -45.0625 231.2265625 C-45.91972656 231.73783691 -46.77695313 232.24911133 -47.66015625 232.77587891 C-50 234 -50 234 -52.24609375 234.54833984 C-52.82488281 234.6973877 -53.40367187 234.84643555 -54 235 C-54.33 235.66 -54.66 236.32 -55 237 C-56.32 237 -57.64 237 -59 237 C-59 237.66 -59 238.32 -59 239 C-59.99 239 -60.98 239 -62 239 C-62 239.66 -62 240.32 -62 241 C-64.24664262 242.31855095 -66.49697306 243.62993972 -68.75 244.9375 C-69.38421875 245.31068359 -70.0184375 245.68386719 -70.671875 246.06835938 C-75.59500926 248.91454637 -75.59500926 248.91454637 -78.02832031 249.42797852 C-80.45531369 250.13209509 -81.24177513 251.20209205 -83 253 C-84.95810774 254.22951773 -86.95023458 255.40539633 -88.9609375 256.546875 C-89.84055649 257.04831024 -89.84055649 257.04831024 -90.73794556 257.55987549 C-91.98237308 258.26809967 -93.22812525 258.97400065 -94.47509766 259.67773438 C-96.3364485 260.72824233 -98.1939612 261.78525851 -100.05078125 262.84375 C-106.1017632 266.28526741 -112.17907463 269.67993958 -118.2890625 273.015625 C-119.8661499 273.87849121 -119.8661499 273.87849121 -121.47509766 274.75878906 C-124 276 -124 276 -126 276 C-126 276.66 -126 277.32 -126 278 C-126.639375 278.12375 -127.27875 278.2475 -127.9375 278.375 C-128.618125 278.58125 -129.29875 278.7875 -130 279 C-130.33 279.66 -130.66 280.32 -131 281 C-132.574256 281.6781075 -134.15155237 282.34961539 -135.73925781 282.99560547 C-140.625594 285.1664896 -145.2247994 287.93314813 -149.875 290.5625 C-150.9774707 291.1822168 -152.07994141 291.80193359 -153.21582031 292.44042969 C-160.46129702 296.52616138 -167.66410664 300.67856956 -174.78466797 304.97875977 C-178.10714445 306.96923694 -181.35057677 308.69066495 -185 310 C-185 310.66 -185 311.32 -185 312 C-186.98 312.66 -188.96 313.32 -191 314 C-191.03356824 304.41668566 -191.05187207 294.83336356 -191.0625 285.25 C-191.06335602 284.48407784 -191.06421204 283.71815567 -191.06509399 282.92902374 C-191.10205927 245.0764589 -190.798988 207.22605983 -190.5 169.375 C-190.49103943 168.23929408 -190.49103943 168.23929408 -190.48189783 167.08064461 C-190.32641454 147.38705357 -190.16581993 127.69350685 -190 108 C-189.01 108 -188.02 108 -187 108 C-187 107.34 -187 106.68 -187 106 C-186.03066528 105.4440918 -186.03066528 105.4440918 -185.04174805 104.87695312 C-172.47841946 97.66575477 -159.94986857 90.40565904 -147.5 83 C-130.02727432 72.62672671 -130.02727432 72.62672671 -121.34692383 67.56811523 C-119.66530631 66.58603916 -117.98786976 65.59681504 -116.31054688 64.60742188 C-115.29283203 64.01638672 -114.27511719 63.42535156 -113.2265625 62.81640625 C-112.33533691 62.29506104 -111.44411133 61.77371582 -110.52587891 61.23657227 C-107.98861703 59.99442734 -105.78313136 59.41487478 -103 59 C-103 58.34 -103 57.68 -103 57 C-101.390625 55.7109375 -101.390625 55.7109375 -99.25 54.375 C-98.20585937 53.70597656 -98.20585937 53.70597656 -97.140625 53.0234375 C-95 52 -95 52 -91 52 C-91 51.34 -91 50.68 -91 50 C-89.17773438 48.70996094 -89.17773438 48.70996094 -86.59375 47.234375 C-85.63476807 46.68144775 -84.67578613 46.12852051 -83.68774414 45.55883789 C-82.63578857 44.96192139 -81.58383301 44.36500488 -80.5 43.75 C-78.27986907 42.47279329 -76.05981916 41.19544574 -73.83984375 39.91796875 C-72.6988623 39.26489746 -71.55788086 38.61182617 -70.38232422 37.93896484 C-65.26197731 35.00365409 -60.16133178 32.03497791 -55.0625 29.0625 C-54.09151367 28.49869629 -53.12052734 27.93489258 -52.12011719 27.35400391 C-46.73726884 24.21916164 -41.38937959 21.03335375 -36.07421875 17.78515625 C-34.92247458 17.08385385 -33.77070079 16.3826001 -32.61889648 15.68139648 C-30.41444533 14.33578506 -28.21452764 12.98271131 -26.01977539 11.62133789 C-24.53272095 10.71436157 -24.53272095 10.71436157 -23.015625 9.7890625 C-22.14196289 9.24975098 -21.26830078 8.71043945 -20.36816406 8.15478516 C-18 7 -18 7 -14 7 C-14 6.34 -14 5.68 -14 5 C-12.4609375 3.7109375 -12.4609375 3.7109375 -10.375 2.375 C-9.70210937 1.92898438 -9.02921875 1.48296875 -8.3359375 1.0234375 C-5.43982691 -0.24542701 -3.13220283 -0.07019993 0 0 Z " fill="#1588DB" transform="translate(218,357)"/>
<path d="M0 0 C3.36241563 0.45438049 6.04009971 1.35561095 9 3 C9 3.66 9 4.32 9 5 C9.72058594 5.26683594 10.44117188 5.53367187 11.18359375 5.80859375 C14.91155557 7.3856095 18.18028222 9.50652608 21.59765625 11.66015625 C23.78535506 12.88028746 25.55513373 13.54264626 28 14 C28 14.66 28 15.32 28 16 C28.680625 16.268125 29.36125 16.53625 30.0625 16.8125 C33.39710809 18.16053306 36.69743237 19.57536298 40 21 C40 21.66 40 22.32 40 23 C40.680625 23.2475 41.36125 23.495 42.0625 23.75 C44.39104417 24.74086986 46.39948594 25.78054124 48.5625 27.0625 C51.22078431 28.5608057 53.0501226 29.52801962 56 30 C56 30.66 56 31.32 56 32 C57.65 32.33 59.3 32.66 61 33 C61 33.66 61 34.32 61 35 C63.31 35.66 65.62 36.32 68 37 C68 37.66 68 38.32 68 39 C69.65 39.33 71.3 39.66 73 40 C73 40.66 73 41.32 73 42 C73.639375 42.2475 74.27875 42.495 74.9375 42.75 C77.51599139 43.80244546 80.07343327 44.88447001 82.625 46 C83.38039063 46.33 84.13578125 46.66 84.9140625 47 C87 48 87 48 90 50 C90 50.66 90 51.32 90 52 C91.86011719 52.53560547 91.86011719 52.53560547 93.7578125 53.08203125 C99.92468636 55.14288135 105.30730118 58.37573983 110.875 61.6875 C111.88691406 62.27466797 112.89882813 62.86183594 113.94140625 63.46679688 C120.10242484 67.09162151 125.91150497 70.99677494 131.61108398 75.31176758 C134.63038509 77.44548931 137.52816441 78.76556957 141 80 C141 80.66 141 81.32 141 82 C141.65742187 82.23847656 142.31484375 82.47695313 142.9921875 82.72265625 C146.86279742 84.36640878 150.46206726 86.37854204 154.125 88.4375 C155.29023193 89.08924194 155.29023193 89.08924194 156.47900391 89.75415039 C162.46461466 93.11305548 168.42682943 96.51277827 174.375 99.9375 C175.17695801 100.39761475 175.97891602 100.85772949 176.80517578 101.33178711 C177.55782715 101.7675708 178.31047852 102.20335449 179.0859375 102.65234375 C179.7464209 103.03382568 180.4069043 103.41530762 181.08740234 103.80834961 C181.71855957 104.20159424 182.3497168 104.59483887 183 105 C184.03228226 105.55920891 184.03228226 105.55920891 185.0854187 106.12971497 C187 108 187 108 187.51898193 111.14447021 C187.52786438 112.45514465 187.53674683 113.76581909 187.54589844 115.11621094 C187.55623328 115.84768435 187.56656813 116.57915777 187.57721615 117.33279705 C187.60703885 119.80020593 187.60815129 122.26679778 187.609375 124.734375 C187.62450288 126.51287769 187.64129606 128.29136687 187.65962219 130.06983948 C187.70444764 134.94206272 187.72377692 139.81410134 187.73842239 144.68649673 C187.75387212 148.77458573 187.78406714 152.86250826 187.81448841 156.95050907 C187.9231819 171.63355733 187.96917416 186.31660673 188 201 C188.00262093 202.23882179 188.00524185 203.47764359 188.0079422 204.75400543 C188.08059652 240.5027221 188.06704166 276.25129064 188 312 C183.75090988 309.89285104 179.61049711 307.67987742 175.5 305.3125 C174.24744103 304.59236931 172.99483567 303.87231927 171.7421875 303.15234375 C171.11280273 302.78995605 170.48341797 302.42756836 169.83496094 302.05419922 C167.10366607 300.48504924 164.36341715 298.93167968 161.625 297.375 C155.09872175 293.64884789 148.61199112 289.85655015 142.125 286.0625 C134.83198046 281.79787124 127.52088099 277.57698648 120.14135742 273.46411133 C113.15946522 269.55784081 106.26960991 265.49479137 99.36669922 261.45117188 C91.23602444 256.6981304 83.05412101 252.04148708 74.83764648 247.43847656 C69.61811761 244.50818129 64.46312634 241.4927775 59.33984375 238.39746094 C55.99555298 236.40009863 52.59563592 234.51054694 49.1875 232.625 C44.11249776 229.79714702 39.11954772 226.88328686 34.1875 223.8125 C29.55019784 220.92555209 24.86146903 218.22666685 20.046875 215.6484375 C15.43314619 213.15229191 10.87223845 210.5633656 6.30541992 207.98266602 C2.68573622 205.92987034 2.68573622 205.92987034 -1 204 C-1.02332569 177.54935964 -1.04097755 151.09872081 -1.05181217 124.64807224 C-1.05697583 112.36751017 -1.06401986 100.08695447 -1.07543945 87.80639648 C-1.08538416 77.10685708 -1.09185292 66.40732229 -1.09408849 55.70777839 C-1.09539597 50.03868058 -1.09848411 44.36959599 -1.10573006 38.7005024 C-1.11248691 33.37119688 -1.11461765 28.0419101 -1.11310768 22.71260071 C-1.11338416 20.75053747 -1.11539126 18.78847365 -1.11920547 16.82641411 C-1.12413749 14.15989244 -1.12300012 11.49344269 -1.12025452 8.82691956 C-1.12316736 8.03996989 -1.1260802 7.25302023 -1.12908131 6.44222361 C-1.11412121 1.11412121 -1.11412121 1.11412121 0 0 Z " fill="#032B91" transform="translate(588,359)"/>
<path d="M0 0 C18.376875 -0.0928125 18.376875 -0.0928125 37.125 -0.1875 C40.96527832 -0.21481201 44.80555664 -0.24212402 48.76220703 -0.27026367 C53.52319336 -0.28381348 53.52319336 -0.28381348 55.76583862 -0.28633118 C57.30191674 -0.29087888 58.8379855 -0.30130421 60.37399292 -0.31672668 C76.9520303 -0.47457343 90.31457437 0.73842215 102.87109375 12.796875 C109.99883063 20.54673355 112.43628811 28.83881393 112.33984375 39.22265625 C111.48646408 48.70792222 106.98926938 56.64053292 100 63 C98.05162888 64.45582987 96.07113384 65.71786953 94 67 C93.67 67.66 93.34 68.32 93 69 C93.94875 69 94.8975 69 95.875 69 C102.69759537 69.9568274 108.35139572 76.00235218 112.875 80.875 C119.25771873 90.26135108 120.47728429 99.88036913 119 111 C116.06892463 122.43897556 109.00860877 131.81467978 99 138 C86.942757 144.26049156 74.54196077 144.41792285 61.328125 144.29296875 C59.75179361 144.28854656 58.17545779 144.28549303 56.59912109 144.28381348 C50.81601265 144.26821611 45.0329991 144.22633283 39.25 144.1875 C19.82125 144.0946875 19.82125 144.0946875 0 144 C0 96.48 0 48.96 0 0 Z " fill="#093093" transform="translate(269,356)"/>
<path d="M0 0 C9.57 0 19.14 0 29 0 C29.33 20.46 29.66 40.92 30 62 C37.68075403 53.67918313 45.35351339 45.35214652 53 37 C59.12278264 30.31217325 65.25186448 23.6305528 71.41381836 16.97875977 C71.86635986 16.48947998 72.31890137 16.0002002 72.78515625 15.49609375 C73.2862793 14.97942139 73.78740234 14.46274902 74.30371094 13.93041992 C76.13561805 11.92810932 76.13561805 11.92810932 77.90722656 9.1730957 C83.4122219 1.7115563 83.4122219 1.7115563 88.07754517 0.42874146 C93.92022871 -0.36658828 99.75780204 -0.00439609 105.625 0.3125 C107.41000467 0.36776481 109.19517458 0.41793953 110.98046875 0.46289062 C115.32444086 0.58325186 119.66037463 0.77248628 124 1 C122.42035813 4.85027206 119.96855605 7.24625535 117.01953125 10.140625 C116.52845383 10.62650085 116.0373764 11.11237671 115.53141785 11.61297607 C113.96314352 13.16350303 112.38836518 14.70719156 110.8125 16.25 C108.75305439 18.27256097 106.69687725 20.29835995 104.64453125 22.328125 C104.14459152 22.82252075 103.64465179 23.3169165 103.12956238 23.82629395 C99.8467293 27.09591004 96.77252185 30.47995916 93.76782227 34.00292969 C90.0628676 38.18833628 86.03297763 42.06877424 82.0625 46 C81.18787109 46.87011719 80.31324219 47.74023438 79.41210938 48.63671875 C77.27702551 50.76013549 75.13962795 52.88116378 73 55 C74.16824823 58.08398995 75.4018583 60.85514249 77.21484375 63.609375 C77.64796875 64.27259766 78.08109375 64.93582031 78.52734375 65.61914062 C78.99269531 66.32232422 79.45804687 67.02550781 79.9375 67.75 C80.93631393 69.27596573 81.93500855 70.80200957 82.93359375 72.328125 C83.44390137 73.10478516 83.95420898 73.88144531 84.47998047 74.68164062 C86.83707868 78.2767265 89.16791961 81.88865735 91.5 85.5 C92.41652474 86.91675849 93.33319182 88.33342491 94.25 89.75 C97 94 97 94 99.75 98.25 C100.20391113 98.9514917 100.65782227 99.6529834 101.12548828 100.37573242 C102.04055435 101.78994021 102.95559349 103.20416542 103.87060547 104.6184082 C106.18653887 108.19784034 108.50296473 111.7769521 110.8203125 115.35546875 C113.10573598 118.88478673 115.3889302 122.41554007 117.67138672 125.94677734 C119.00915828 128.01415309 120.35013951 130.07942184 121.69140625 132.14453125 C122.52352917 133.42962815 123.35556473 134.71478162 124.1875 136 C124.57437988 136.59385498 124.96125977 137.18770996 125.35986328 137.79956055 C128 141.88647269 128 141.88647269 128 143 C122.82241114 143.19815605 117.64703814 143.34309889 112.46655273 143.43945312 C110.70574497 143.47962241 108.94520306 143.53417284 107.18530273 143.60351562 C92.60653169 144.16344583 92.60653169 144.16344583 88.87109375 141.45825195 C87.54230801 139.34411051 86.77787021 137.36783383 86 135 C85.26809398 133.70457674 84.50469255 132.42644433 83.7109375 131.16796875 C82.93098364 129.84191432 82.15238849 128.51505999 81.375 127.1875 C80.94896484 126.46175781 80.52292969 125.73601562 80.08398438 124.98828125 C76.40586269 118.71352343 72.76106198 112.41957606 69.12670898 106.11938477 C66.8237182 102.1314386 64.50515064 98.1541061 62.15234375 94.1953125 C61.69601562 93.42638672 61.2396875 92.65746094 60.76953125 91.86523438 C59.90673781 90.41417269 59.04103434 88.96483573 58.171875 87.51757812 C56.13412459 84.08860609 54.34791551 80.77416342 53 77 C51.22636242 78.4840641 49.46916509 79.98925181 47.75976562 81.546875 C45.64332814 83.42815277 43.51675952 85.15485798 41.28710938 86.890625 C35.29755007 91.84088531 30.03884881 96.49399884 28.68774414 104.43920898 C28.13164089 110.44862212 28.32528154 116.41635133 28.5625 122.4375 C28.5895855 124.53703167 28.60981678 126.63666343 28.62304688 128.73632812 C28.65723024 133.8336704 28.83101527 138.89837234 29 144 C19.43 144 9.86 144 0 144 C0 96.48 0 48.96 0 0 Z " fill="#072E92" transform="translate(413,356)"/>
<path d="M0 0 C5.92324354 -0.09235027 11.84394134 -0.1718298 17.76733398 -0.21972656 C19.77783724 -0.23971393 21.78828333 -0.26691326 23.79858398 -0.30175781 C48.41495066 -0.71743026 48.41495066 -0.71743026 55.71459961 5.44824219 C60.27554208 10.46630525 60.36925573 15.76053694 60.265625 22.24609375 C59.86402436 26.40974741 58.80351259 28.92518067 56 32 C49.52707464 36.89642352 43.77364393 37.69685876 35.83984375 37.48828125 C34.29412437 37.47766914 34.29412437 37.47766914 32.71717834 37.46684265 C29.45651719 37.43906607 26.19763375 37.37635804 22.9375 37.3125 C20.71421767 37.28739555 18.49090818 37.26458617 16.26757812 37.24414062 C10.84383213 37.19356485 5.42388314 37.09567806 0 37 C0 24.79 0 12.58 0 0 Z " fill="#FCFDFE" transform="translate(298,438)"/>
<path d="M0 0 C5.61 0 11.22 0 17 0 C18.14385739 4.34053026 19.28468974 8.68162981 20.41796875 13.02490234 C20.80423656 14.50159898 21.19224196 15.97784226 21.58203125 17.45361328 C22.14262096 19.57727583 22.69690226 21.70250061 23.25 23.828125 C23.42499023 24.48556702 23.59998047 25.14300903 23.78027344 25.82037354 C24.61212245 29.04221933 25 31.63530998 25 35 C25.66 35 26.32 35 27 35 C27.2475 33.865625 27.495 32.73125 27.75 31.5625 C28.16506076 29.70797319 28.58205979 27.85388002 29 26 C29.1448584 25.3512793 29.2897168 24.70255859 29.43896484 24.03417969 C29.93244837 21.83387701 30.43438818 19.63561952 30.9375 17.4375 C31.09508789 16.72988525 31.25267578 16.02227051 31.41503906 15.29321289 C32.5588489 10.34147902 34.13327992 5.72796054 36 1 C41.28 1 46.56 1 52 1 C52 18.82 52 36.64 52 55 C48.7 55 45.4 55 42 55 C41.67 42.13 41.34 29.26 41 16 C36.42314447 34.9819747 36.42314447 34.9819747 32 54 C28.37 54 24.74 54 21 54 C17.37642664 42.137352 14.66413716 30.1070233 12 18 C11.97494385 19.08531006 11.9498877 20.17062012 11.92407227 21.28881836 C11.83016245 25.301316 11.72990233 29.31363382 11.62768555 33.32592773 C11.58427427 35.06514288 11.54260388 36.80440235 11.50268555 38.54370117 C11.44513232 41.03838488 11.3813958 43.5328441 11.31640625 46.02734375 C11.29133751 47.2007859 11.29133751 47.2007859 11.26576233 48.39793396 C11.11387171 53.88612829 11.11387171 53.88612829 10 55 C6.7 55 3.4 55 0 55 C0 36.85 0 18.7 0 0 Z " fill="#1E8DDC" transform="translate(486,510)"/>
<path d="M0 0 C5.9781577 -0.09212914 11.95382536 -0.17167718 17.93212891 -0.21972656 C19.96313857 -0.23976836 21.99409106 -0.26700947 24.02490234 -0.30175781 C26.95424556 -0.35060414 29.882822 -0.37304343 32.8125 -0.390625 C33.71178223 -0.41127014 34.61106445 -0.43191528 35.53759766 -0.45318604 C41.5235513 -0.45528824 46.00431935 0.60586702 51 4 C54.54711702 7.63579495 55.28578227 10.56629785 55.5 15.5 C55.29969749 20.4207651 54.42917072 23.30010527 51 27 C46.64147079 30.2911343 43.27300768 32.12994897 37.80395508 32.11352539 C36.96331009 32.11344986 36.1226651 32.11337433 35.25654602 32.11329651 C34.35333115 32.10813522 33.45011627 32.10297394 32.51953125 32.09765625 C31.59154221 32.0962413 30.66355316 32.09482635 29.70744324 32.09336853 C26.74242942 32.08776937 23.77749101 32.07521704 20.8125 32.0625 C18.80273547 32.05748489 16.79296975 32.052922 14.78320312 32.04882812 C9.8554163 32.03865095 4.9277926 32.01907533 0 32 C0 21.44 0 10.88 0 0 Z " fill="#FCFCFD" transform="translate(298,381)"/>
<path d="M0 0 C1.18529297 -0.01224609 2.37058594 -0.02449219 3.59179688 -0.03710938 C5.3155957 -0.04000977 5.3155957 -0.04000977 7.07421875 -0.04296875 C8.12569092 -0.04707764 9.17716309 -0.05118652 10.26049805 -0.05541992 C16.11126349 0.41026375 20.7926101 2.47114608 25.3125 6.1875 C28.09899106 11.01741783 29.26696802 15.65997638 28.3125 21.1875 C26.98905011 25.03568505 25.79812844 28.33624575 22.171875 30.4140625 C21.55828125 30.66929687 20.9446875 30.92453125 20.3125 31.1875 C20.3125 31.8475 20.3125 32.5075 20.3125 33.1875 C17.91190183 34.38779908 16.41889351 34.30209743 13.7421875 34.28515625 C12.93507324 34.28265869 12.12795898 34.28016113 11.29638672 34.27758789 C10.2704541 34.26848389 9.24452148 34.25937988 8.1875 34.25 C3.299375 34.2190625 3.299375 34.2190625 -1.6875 34.1875 C-1.6875 41.1175 -1.6875 48.0475 -1.6875 55.1875 C-10.18359375 55.28515625 -10.18359375 55.28515625 -12.6875 55.1875 C-14.35466684 53.52033316 -13.81494882 51.5144386 -13.81689453 49.22460938 C-13.82004669 48.16681274 -13.82319885 47.10901611 -13.82644653 46.01916504 C-13.82341019 44.29264709 -13.82341019 44.29264709 -13.8203125 42.53125 C-13.82126923 41.35864624 -13.82222595 40.18604248 -13.82321167 38.97790527 C-13.8238937 36.49291938 -13.82203784 34.00793171 -13.81787109 31.52294922 C-13.81252319 27.70406113 -13.81781536 23.88529065 -13.82421875 20.06640625 C-13.82355797 17.65885391 -13.82227682 15.25130163 -13.8203125 12.84375 C-13.82233673 11.69273804 -13.82436096 10.54172607 -13.82644653 9.35583496 C-13.82329437 8.29803833 -13.82014221 7.2402417 -13.81689453 6.15039062 C-13.81609894 5.21408813 -13.81530334 4.27778564 -13.81448364 3.31311035 C-13.47957324 -2.29303703 -4.20439755 0.00224954 0 0 Z " fill="#238FDD" transform="translate(330.6875,509.8125)"/>
<path d="M0 0 C3.63 0 7.26 0 11 0 C11 7.26 11 14.52 11 22 C17.93 22 24.86 22 32 22 C32 14.74 32 7.48 32 0 C35.63 0 39.26 0 43 0 C43 18.15 43 36.3 43 55 C39.37 55 35.74 55 32 55 C32 46.75 32 38.5 32 30 C25.07 30 18.14 30 11 30 C11 38.25 11 46.5 11 55 C7.37 55 3.74 55 0 55 C0 36.85 0 18.7 0 0 Z " fill="#218EDD" transform="translate(379,510)"/>
<path d="M0 0 C6.16670776 3.63380498 9.44679139 6.96955676 11.84765625 13.71484375 C11.84765625 14.37484375 11.84765625 15.03484375 11.84765625 15.71484375 C8.10987557 16.91093357 4.74419592 17.20191121 0.84765625 16.71484375 C-1.46484375 13.77734375 -1.46484375 13.77734375 -3.15234375 10.71484375 C-7.12678946 8.72762089 -11.84315083 9.03706305 -16.15234375 9.71484375 C-19.09876177 11.7920365 -20.54914586 14.50844796 -22.15234375 17.71484375 C-23.27493738 30.18042574 -23.27493738 30.18042574 -18.63671875 41.3671875 C-15.99506855 43.76552781 -13.75044268 44.6512162 -10.21484375 45.02734375 C-6.59412576 44.65788273 -4.94492073 44.05457041 -2.15234375 41.71484375 C-0.87719588 39.41957758 -0.0442902 37.20290489 0.84765625 34.71484375 C4.47765625 35.37484375 8.10765625 36.03484375 11.84765625 36.71484375 C10.46705501 43.61784993 7.65854482 47.74643204 1.84765625 51.71484375 C-2.40547177 53.84908489 -6.41307476 54.08115894 -11.08984375 54.08984375 C-11.78013672 54.11433594 -12.47042969 54.13882813 -13.18164062 54.1640625 C-19.43005338 54.1995985 -22.77575224 51.95537086 -27.19921875 47.78515625 C-27.76125 47.14320313 -28.32328125 46.50125 -28.90234375 45.83984375 C-29.76085937 44.88464844 -29.76085937 44.88464844 -30.63671875 43.91015625 C-35.89848657 36.28872967 -35.11003578 25.5739949 -34.15234375 16.71484375 C-32.20356456 9.76268727 -27.01762665 4.72500876 -21.15234375 0.71484375 C-14.49943534 -2.53476168 -6.85501391 -2.7946711 0 0 Z " fill="#208EDC" transform="translate(465.15234375,510.28515625)"/>
<path d="M0 0 C1.65 0 3.3 0 5 0 C6.01211784 42.22373311 6.12813284 84.42637204 6.07202661 126.65954554 C6.06056283 135.45134704 6.0552803 144.24314962 6.05032361 153.03495681 C6.04005337 171.02331304 6.02263169 189.01165526 6 207 C5.34 207.33 4.68 207.66 4 208 C4.33 208.66 4.66 209.32 5 210 C-0.75 213 -0.75 213 -3 213 C-3 213.66 -3 214.32 -3 215 C-3.91136719 215.35578125 -4.82273438 215.7115625 -5.76171875 216.078125 C-11.36936327 218.48681536 -16.55275778 221.67325855 -21.8125 224.75 C-22.96671185 225.42108065 -24.12117664 226.09172644 -25.27587891 226.76196289 C-27.66913596 228.151602 -30.0613049 229.54308579 -32.45263672 230.93603516 C-37.9181162 234.11813892 -43.39660035 237.27770859 -48.875 240.4375 C-49.94081299 241.05270508 -51.00662598 241.66791016 -52.10473633 242.30175781 C-60.64312176 247.22684012 -69.19996658 252.1192163 -77.76089478 257.00494385 C-86.3731571 261.9205552 -94.97359292 266.85614322 -103.5625 271.8125 C-104.62791016 272.42681885 -105.69332031 273.0411377 -106.79101562 273.67407227 C-111.79530613 276.56208772 -116.79306831 279.46037453 -121.77734375 282.3828125 C-122.66413818 282.90125732 -123.55093262 283.41970215 -124.46459961 283.95385742 C-126.10953492 284.91642573 -127.75240941 285.88252779 -129.39282227 286.8527832 C-134.77671364 290 -134.77671364 290 -137 290 C-137.33 290.99 -137.66 291.98 -138 293 C-139.32 293 -140.64 293 -142 293 C-142 293.66 -142 294.32 -142 295 C-145 297 -145 297 -149 297 C-149 297.66 -149 298.32 -149 299 C-152 301 -152 301 -156 301 C-156 301.66 -156 302.32 -156 303 C-159 305 -159 305 -163 305 C-163 305.66 -163 306.32 -163 307 C-166 309 -166 309 -170 309 C-170 309.66 -170 310.32 -170 311 C-173 313 -173 313 -177 313 C-177 313.66 -177 314.32 -177 315 C-178.65 315.66 -180.3 316.32 -182 317 C-181.649375 316.38125 -181.29875 315.7625 -180.9375 315.125 C-180.628125 314.42375 -180.31875 313.7225 -180 313 C-180.33 312.34 -180.66 311.68 -181 311 C-180.33806641 310.6189209 -179.67613281 310.2378418 -178.99414062 309.84521484 C-176.41463499 308.3597356 -173.83558155 306.87347393 -171.25665283 305.38699341 C-169.49759192 304.37361273 -167.73783024 303.36145674 -165.97802734 302.34936523 C-159.98574018 298.89954306 -154.01132461 295.42425176 -148.0703125 291.88671875 C-146.98556641 291.2436377 -145.90082031 290.60055664 -144.78320312 289.93798828 C-142.70732314 288.70523395 -140.63555952 287.4655165 -138.56835938 286.21826172 C-137.16166992 285.38512451 -137.16166992 285.38512451 -135.7265625 284.53515625 C-134.90752441 284.044104 -134.08848633 283.55305176 -133.24462891 283.04711914 C-131 282 -131 282 -127 282 C-126.67 281.01 -126.34 280.02 -126 279 C-124.68 279 -123.36 279 -122 279 C-122 278.34 -122 277.68 -122 277 C-120.906875 276.44054687 -119.81375 275.88109375 -118.6875 275.3046875 C-107.83387976 269.6952186 -97.24088774 263.73221096 -86.74804688 257.47216797 C-85.76771484 256.89096191 -84.78738281 256.30975586 -83.77734375 255.7109375 C-82.90327881 255.18806152 -82.02921387 254.66518555 -81.12866211 254.12646484 C-79 253 -79 253 -77 253 C-76.67 252.01 -76.34 251.02 -76 250 C-74.38762266 249.26099372 -72.76730836 248.53491028 -71.11328125 247.89453125 C-67.89430961 246.53197209 -64.93351365 244.74778163 -61.91796875 242.98828125 C-60 242 -60 242 -58 242 C-58 241.34 -58 240.68 -58 240 C-57.01 240 -56.02 240 -55 240 C-55 239.34 -55 238.68 -55 238 C-53.68 238 -52.36 238 -51 238 C-50.67 237.01 -50.34 236.02 -50 235 C-48.43862047 234.29423039 -46.86899248 233.60394987 -45.27392578 232.97802734 C-40.29593734 230.83696854 -35.64705342 227.98043719 -30.9375 225.3125 C-29.82947021 224.68907715 -28.72144043 224.0656543 -27.57983398 223.42333984 C-22.81366142 220.73816238 -18.05521566 218.04075986 -13.3203125 215.30078125 C-12.6694165 214.9246167 -12.01852051 214.54845215 -11.34790039 214.16088867 C-9.68865785 213.19819674 -8.03360292 212.22829717 -6.37890625 211.2578125 C-4 210 -4 210 -2 210 C-2 209.34 -2 208.68 -2 208 C0.64738916 206.5393715 1.89448334 206 5 206 C4.97021844 205.02868102 4.94043688 204.05736204 4.90975285 203.05660915 C4.16994649 178.54095309 3.85783789 154.05143102 3.89860606 129.52540708 C3.90502952 124.97722115 3.9054579 120.42903388 3.90663147 115.88084412 C3.9096906 107.33980522 3.91782761 98.79877973 3.92798096 90.25774664 C3.93931463 80.5037044 3.94469516 70.74966139 3.94967639 60.99561417 C3.96001748 40.99706874 3.97750709 20.99853523 4 1 C2.02 0.505 2.02 0.505 0 0 Z " fill="#ECF2F9" transform="translate(214,356)"/>
<path d="M0 0 C13.86 0 27.72 0 42 0 C42 2.64 42 5.28 42 8 C37.05 8 32.1 8 27 8 C27 23.18 27 38.36 27 54 C23.37 54 19.74 54 16 54 C16 38.82 16 23.64 16 8 C10.72 8 5.44 8 0 8 C0 5.36 0 2.72 0 0 Z " fill="#1D8CDC" transform="translate(268,511)"/>
<path d="M0 0 C4.20982521 1.25372897 7.54662138 2.80438713 11.1875 5.25 C14.80922492 7.6189883 18.43179247 9.83786394 22.25 11.875 C27.36176182 14.60614132 32.31854396 17.55067366 37.25878906 20.57763672 C40.85817498 22.76800682 44.50465629 24.83496457 48.2109375 26.83984375 C54.26080555 30.11607679 60.19449639 33.57596826 66.125 37.0625 C72.27057446 40.67137401 78.42221102 44.2524357 84.66357422 47.69311523 C90.53489942 50.97725357 96.31436989 54.42496881 102.1171875 57.828125 C107.27161864 60.8447132 112.44269616 63.81579467 117.67236328 66.69970703 C122.46632305 69.37776763 127.19713245 72.16607051 131.9375 74.9375 C132.95779297 75.53240234 133.97808594 76.12730469 135.02929688 76.74023438 C139.84056621 79.54962266 144.63909581 82.37670187 149.41015625 85.25390625 C152.73261687 87.25388879 156.07501657 89.17912273 159.5 91 C163.93478851 93.39228732 168.25640176 95.92756613 172.5625 98.54296875 C176.32237946 100.7904608 180.15556058 102.90134466 184 105 C183.34 105.66 182.68 106.32 182 107 C182.33 107.66 182.66 108.32 183 109 C178.69235185 107.43358249 174.93828536 105.31663844 171 103 C171 102.34 171 101.68 171 101 C170.21625 100.855625 169.4325 100.71125 168.625 100.5625 C166 100 166 100 164 99 C164 98.34 164 97.68 164 97 C163.27143799 96.88551514 162.54287598 96.77103027 161.79223633 96.65307617 C158.90928216 95.978782 156.88428539 95.01994774 154.32421875 93.55078125 C153.42678955 93.03990967 152.52936035 92.52903809 151.60473633 92.00268555 C150.64204834 91.44492432 149.67936035 90.88716309 148.6875 90.3125 C147.67131592 89.73089111 146.65513184 89.14928223 145.6081543 88.55004883 C137.49008413 83.89271216 129.40862542 79.17161604 121.33227539 74.44238281 C113.62474336 69.93265003 105.88253602 65.48545736 98.125 61.0625 C86.75156788 54.57706034 75.39781234 48.05871488 64.06640625 41.5 C60.10607589 39.20920212 56.13512765 36.93902112 52.15234375 34.6875 C51.25652588 34.17807861 50.36070801 33.66865723 49.43774414 33.14379883 C47.77240042 32.19745461 46.10377679 31.25685093 44.43139648 30.32299805 C42.5878146 29.27137305 40.7878577 28.14379812 39 27 C39 26.34 39 25.68 39 25 C38.27981689 24.89115479 37.55963379 24.78230957 36.81762695 24.67016602 C33.77609775 23.94674537 31.61404725 22.84867785 28.91796875 21.27734375 C27.98662109 20.73916016 27.05527344 20.20097656 26.09570312 19.64648438 C25.13599609 19.08251953 24.17628906 18.51855469 23.1875 17.9375 C22.20845703 17.36966797 21.22941406 16.80183594 20.22070312 16.21679688 C17.81006652 14.81745173 15.4034149 13.41170071 13 12 C13 11.34 13 10.68 13 10 C12.21625 9.855625 11.4325 9.71125 10.625 9.5625 C8 9 8 9 6 8 C6 7.34 6 6.68 6 6 C4.39125 5.5978125 4.39125 5.5978125 2.75 5.1875 C-0.56508928 4.13772173 -2.43877646 3.25387672 -5 1 C-2.525 1.495 -2.525 1.495 0 2 C0 1.34 0 0.68 0 0 Z " fill="#CADCF0" transform="translate(591,565)"/>
<path d="M0 0 C1.65 0 3.3 0 5 0 C6.01211784 42.22373311 6.12813284 84.42637204 6.07202661 126.65954554 C6.06056283 135.45134704 6.0552803 144.24314962 6.05032361 153.03495681 C6.04005337 171.02331304 6.02263169 189.01165526 6 207 C5.34 207.33 4.68 207.66 4 208 C4.33 208.66 4.66 209.32 5 210 C-0.75 213 -0.75 213 -3 213 C-3 213.66 -3 214.32 -3 215 C-4.47726563 215.59554687 -4.47726563 215.59554687 -5.984375 216.203125 C-11.0379053 218.36601561 -15.68518918 221.21017744 -20.390625 224.03515625 C-22.21894008 225.09821066 -24.10670682 226.05752366 -26 227 C-26.99 226.67 -27.98 226.34 -29 226 C-26.25005382 223.05731171 -23.58151307 220.97480939 -20.0859375 218.984375 C-19.16039062 218.45585938 -18.23484375 217.92734375 -17.28125 217.3828125 C-16.3221875 216.84398437 -15.363125 216.30515625 -14.375 215.75 C-13.40820312 215.19570313 -12.44140625 214.64140625 -11.4453125 214.0703125 C-4.26712592 210 -4.26712592 210 -2 210 C-2 209.34 -2 208.68 -2 208 C0.64738916 206.5393715 1.89448334 206 5 206 C4.97021844 205.02868102 4.94043688 204.05736204 4.90975285 203.05660915 C4.16994649 178.54095309 3.85783789 154.05143102 3.89860606 129.52540708 C3.90502952 124.97722115 3.9054579 120.42903388 3.90663147 115.88084412 C3.9096906 107.33980522 3.91782761 98.79877973 3.92798096 90.25774664 C3.93931463 80.5037044 3.94469516 70.74966139 3.94967639 60.99561417 C3.96001748 40.99706874 3.97750709 20.99853523 4 1 C2.68 0.67 1.36 0.34 0 0 Z " fill="#C1DFF5" transform="translate(214,356)"/>
<path d="M0 0 C1.93166016 0.01740234 1.93166016 0.01740234 3.90234375 0.03515625 C5.19269531 0.04417969 6.48304688 0.05320312 7.8125 0.0625 C8.81152344 0.07410156 9.81054688 0.08570313 10.83984375 0.09765625 C10.83984375 0.75765625 10.83984375 1.41765625 10.83984375 2.09765625 C12.15984375 2.75765625 13.47984375 3.41765625 14.83984375 4.09765625 C15.22623962 8.65712756 15.41363875 11.07757625 13.15234375 15.09765625 C8.01362566 18.2002785 2.70469222 17.67751415 -3.16015625 17.09765625 C-4.91575567 15.34205683 -4.29237544 13.06183183 -4.296875 10.7265625 C-4.29300781 10.02402344 -4.28914063 9.32148437 -4.28515625 8.59765625 C-4.28902344 7.89511719 -4.29289062 7.19257812 -4.296875 6.46875 C-4.28466625 0.13240625 -4.28466625 0.13240625 0 0 Z " fill="#E8F3FB" transform="translate(332.16015625,518.90234375)"/>
<path d="M0 0 C0 0.66 0 1.32 0 2 C-0.81181575 2.35968022 -1.6236315 2.71936045 -2.46004772 3.08994007 C-5.41751028 4.85787985 -5.41751028 4.85787985 -5.63085651 8.74249554 C-5.6593132 10.3484003 -5.65984651 11.95493423 -5.63923645 13.56095886 C-5.64759213 14.44556945 -5.6559478 15.33018003 -5.66455668 16.241597 C-5.68657414 19.21769432 -5.67285291 22.19256802 -5.65942383 25.16870117 C-5.66787216 27.29720501 -5.678514 29.42570112 -5.69119263 31.55418396 C-5.71942788 37.34318495 -5.71685159 43.13181656 -5.70889878 48.92086577 C-5.70578155 54.96677522 -5.73078508 61.01256538 -5.75285339 67.0584259 C-5.79036299 78.51187095 -5.80244548 89.96519726 -5.8054778 101.41869766 C-5.81016113 114.45606151 -5.84306114 127.49330585 -5.87837565 140.53061712 C-5.95039765 167.35373025 -5.9868409 194.176798 -6 221 C-5.01 221 -4.02 221 -3 221 C-3 221.66 -3 222.32 -3 223 C-4.32 223.33 -5.64 223.66 -7 224 C-7 151.07 -7 78.14 -7 3 C-6.01 3 -5.02 3 -4 3 C-4 2.34 -4 1.68 -4 1 C-2 0 -2 0 0 0 Z " fill="#5A73B7" transform="translate(224,130)"/>
<path d="M0 0 C0 0.66 0 1.32 0 2 C1.32 2.33 2.64 2.66 4 3 C2.35 3.33 0.7 3.66 -1 4 C-1 4.66 -1 5.32 -1 6 C-4 8 -4 8 -8 8 C-8 8.66 -8 9.32 -8 10 C-11 12 -11 12 -15 12 C-15 12.66 -15 13.32 -15 14 C-18 16 -18 16 -22 16 C-22 16.66 -22 17.32 -22 18 C-25 20 -25 20 -29 20 C-29 20.66 -29 21.32 -29 22 C-32 24 -32 24 -36 24 C-36 24.66 -36 25.32 -36 26 C-37.65 26.66 -39.3 27.32 -41 28 C-40.649375 27.38125 -40.29875 26.7625 -39.9375 26.125 C-39.628125 25.42375 -39.31875 24.7225 -39 24 C-39.33 23.34 -39.66 22.68 -40 22 C-39.27522461 21.58226318 -38.55044922 21.16452637 -37.80371094 20.73413086 C-35.05259232 19.14827685 -32.30163618 17.56214144 -29.55078125 15.97583008 C-27.79959985 14.96609926 -26.04824002 13.95667793 -24.296875 12.94726562 C-23.1625 12.29306641 -22.028125 11.63886719 -20.859375 10.96484375 C-19.72435547 10.31112793 -18.58933594 9.65741211 -17.41992188 8.98388672 C-15.11660656 7.64774021 -12.8210569 6.30380097 -10.53320312 4.94189453 C-8.91575195 3.98259033 -8.91575195 3.98259033 -7.265625 3.00390625 C-6.29915039 2.42584229 -5.33267578 1.84777832 -4.33691406 1.25219727 C-2 0 -2 0 0 0 Z " fill="#CDDEF0" transform="translate(73,645)"/>
<path d="M0 0 C3.00633638 1.29879844 5.54648185 2.7542745 8.26171875 4.578125 C12.8074643 7.5512883 17.42700298 10.21346483 22.21484375 12.7734375 C27.23726948 15.50420996 32.15070563 18.42385374 37.07421875 21.328125 C36.41421875 21.988125 35.75421875 22.648125 35.07421875 23.328125 C35.56921875 24.318125 35.56921875 24.318125 36.07421875 25.328125 C31.7665706 23.76170749 28.01250411 21.64476344 24.07421875 19.328125 C24.07421875 18.668125 24.07421875 18.008125 24.07421875 17.328125 C23.29046875 17.18375 22.50671875 17.039375 21.69921875 16.890625 C19.07421875 16.328125 19.07421875 16.328125 17.07421875 15.328125 C17.07421875 14.668125 17.07421875 14.008125 17.07421875 13.328125 C16.34501221 13.21476807 15.61580566 13.10141113 14.86450195 12.98461914 C11.97235932 12.30415965 9.97750452 11.33211046 7.4296875 9.82421875 C6.16801758 9.08461914 6.16801758 9.08461914 4.88085938 8.33007812 C3.58438477 7.55567383 3.58438477 7.55567383 2.26171875 6.765625 C1.37806641 6.24548828 0.49441406 5.72535156 -0.41601562 5.18945312 C-2.58979553 3.9086855 -4.75945212 2.6214416 -6.92578125 1.328125 C-3.29150391 -0.75585938 -3.29150391 -0.75585938 0 0 Z " fill="#CCDDF0" transform="translate(737.92578125,648.671875)"/>
<path d="M0 0 C-1.46385107 3.66586214 -3.2904171 5.11698807 -6.53515625 7.2890625 C-14.41965762 13.24870907 -21.40084003 18.94668222 -23.03662109 29.05175781 C-24.38554422 41.29098198 -23.78180265 53.73822078 -23 66 C-23.33 66 -23.66 66 -24 66 C-27.89074236 24.87784615 -27.89074236 24.87784615 -19.171875 14.1796875 C-6.51598916 0 -6.51598916 0 0 0 Z " fill="#D7DDED" transform="translate(466,433)"/>
<path d="M0 0 C3.3 0 6.6 0 10 0 C10 3.63 10 7.26 10 11 C6.7 11 3.4 11 0 11 C0 7.37 0 3.74 0 0 Z " fill="#3297DF" transform="translate(358,554)"/>
<path d="M0 0 C-0.29390231 3.17239636 -0.51284281 4.58824897 -2.99365234 6.68505859 C-4.2768335 7.40943115 -4.2768335 7.40943115 -5.5859375 8.1484375 C-6.98199219 8.94314453 -6.98199219 8.94314453 -8.40625 9.75390625 C-9.3859375 10.28886719 -10.365625 10.82382812 -11.375 11.375 C-12.34695312 11.93316406 -13.31890625 12.49132812 -14.3203125 13.06640625 C-19.67666455 16.06270816 -19.67666455 16.06270816 -22 17 C-22.99 16.67 -23.98 16.34 -25 16 C-23.74990946 12.24972838 -22.52798171 11.79331273 -19.1875 9.8125 C-18.31480469 9.28269531 -17.44210938 8.75289062 -16.54296875 8.20703125 C-14 7 -14 7 -10 7 C-9.67 6.01 -9.34 5.02 -9 4 C-7.68 4 -6.36 4 -5 4 C-5 3.34 -5 2.68 -5 2 C-2 0 -2 0 0 0 Z " fill="#D5E8F7" transform="translate(97,631)"/>
<path d="M0 0 C0 0.66 0 1.32 0 2 C1.32 2.33 2.64 2.66 4 3 C2.35 3.33 0.7 3.66 -1 4 C-1 4.66 -1 5.32 -1 6 C-4 8 -4 8 -8 8 C-8 8.66 -8 9.32 -8 10 C-11 12 -11 12 -15 12 C-15 12.66 -15 13.32 -15 14 C-16.65 14.66 -18.3 15.32 -20 16 C-19.505 15.1028125 -19.505 15.1028125 -19 14.1875 C-17.79212012 11.94613529 -17.79212012 11.94613529 -18 9 C-15.37785672 7.49480613 -12.75255792 5.99568681 -10.125 4.5 C-9.37863281 4.07074219 -8.63226563 3.64148438 -7.86328125 3.19921875 C-7.14785156 2.79316406 -6.43242188 2.38710938 -5.6953125 1.96875 C-5.03547363 1.59169922 -4.37563477 1.21464844 -3.69580078 0.82617188 C-2 0 -2 0 0 0 Z " fill="#A8C2E3" transform="translate(73,645)"/>
<path d="M0 0 C4.04301175 1.48518799 7.61146256 3.42877998 11.3125 5.625 C12.38113281 6.25664063 13.44976563 6.88828125 14.55078125 7.5390625 C15.76314453 8.26222656 15.76314453 8.26222656 17 9 C16.01 9.495 16.01 9.495 15 10 C14.34 9.67 13.68 9.34 13 9 C13.33 9.99 13.66 10.98 14 12 C11.525 11.01 11.525 11.01 9 10 C9 9.34 9 8.68 9 8 C7.9171875 7.8453125 7.9171875 7.8453125 6.8125 7.6875 C3.75508007 6.94013068 1.61670365 5.71954811 -1 4 C-0.34 3.34 0.32 2.68 1 2 C0.67 1.34 0.34 0.68 0 0 Z " fill="#D1E2F3" transform="translate(621,582)"/>
<path d="M0 0 C5.6586936 0.43528412 10.4465155 2.68314602 15 6 C15.33 6.99 15.66 7.98 16 9 C10.30383545 8.53500698 6.73943107 7.25255073 2 4 C0.5625 1.75 0.5625 1.75 0 0 Z " fill="#C8DDF1" transform="translate(673,614)"/>
<path d="M0 0 C6.12779751 1.67493132 10.42225856 3.53963655 15 8 C15 8.33 15 8.66 15 9 C9.32241324 8.53652353 5.69964834 7.28975384 1 4 C0.3046875 1.86328125 0.3046875 1.86328125 0 0 Z " fill="#BFD6EE" transform="translate(608,576)"/>
<path d="M0 0 C2.57781906 2.57781906 2.62129616 4.4401839 3 8 C2.67 8.33 2.34 8.66 2 9 C1.84126045 11.21687994 1.74866163 13.43855298 1.68359375 15.66015625 C1.66281265 16.32462265 1.64203156 16.98908905 1.62062073 17.6736908 C1.55506342 19.80318543 1.49621215 21.93280668 1.4375 24.0625 C1.39432061 25.50326847 1.35070651 26.94402399 1.30664062 28.38476562 C1.19937607 31.9230404 1.09812629 35.46145869 1 39 C0.34 38.67 -0.32 38.34 -1 38 C-0.67 25.46 -0.34 12.92 0 0 Z " fill="#DCEDFA" transform="translate(497,526)"/>
<path d="M0 0 C0.99 0.33 1.98 0.66 3 1 C2.83923477 1.58247498 2.67846954 2.16494995 2.51283264 2.76507568 C1.71811623 6.22844927 1.76069922 9.72783374 1.68359375 13.265625 C1.66281265 14.05902283 1.64203156 14.85242065 1.62062073 15.66986084 C1.55540027 18.19648844 1.49636856 20.72321721 1.4375 23.25 C1.3942886 24.96615616 1.35067347 26.68230222 1.30664062 28.3984375 C1.19974717 32.59885546 1.09840271 36.79937489 1 41 C0.67 41 0.34 41 0 41 C0 27.47 0 13.94 0 0 Z " fill="#63B0E7" transform="translate(496,523)"/>
<path d="M0 0 C4.61513112 1.31860889 8.09897612 3.21355437 12 6 C11.34 6.66 10.68 7.32 10 8 C10.33 8.66 10.66 9.32 11 10 C6.69235185 8.43358249 2.93828536 6.31663844 -1 4 C-0.34 3.67 0.32 3.34 1 3 C0.67 2.01 0.34 1.02 0 0 Z " fill="#BED6EE" transform="translate(763,664)"/>
<path d="M0 0 C2.31 0.33 4.62 0.66 7 1 C4.33440687 2.77706209 1.9719385 3.87548273 -1 5 C-1 5.66 -1 6.32 -1 7 C-3.31 7.66 -5.62 8.32 -8 9 C-7.375 6.625 -7.375 6.625 -6 4 C-2.875 2.6875 -2.875 2.6875 0 2 C0 1.34 0 0.68 0 0 Z " fill="#E5EDF6" transform="translate(212,564)"/>
<path d="M0 0 C8.54545455 2.3006993 8.54545455 2.3006993 11 4 C11.75 6.125 11.75 6.125 12 8 C5.25 6.125 5.25 6.125 3 5 C3 4.34 3 3.68 3 3 C2.01 2.67 1.02 2.34 0 2 C0 1.34 0 0.68 0 0 Z " fill="#D0E0F1" transform="translate(752,659)"/>
<path d="M0 0 C4.40867812 0.29391187 7.36337396 1.53992944 11 4 C9.68 4.33 8.36 4.66 7 5 C7.33 5.66 7.66 6.32 8 7 C4.40608886 5.66511872 1.24509304 4.03977277 -2 2 C-1.34 1.34 -0.68 0.68 0 0 Z " fill="#B6D0EB" transform="translate(700,629)"/>
<path d="M0 0 C4.40867812 0.29391187 7.36337396 1.53992944 11 4 C9.68 4.33 8.36 4.66 7 5 C7.33 5.66 7.66 6.32 8 7 C4.40608886 5.66511872 1.24509304 4.03977277 -2 2 C-1.34 1.34 -0.68 0.68 0 0 Z " fill="#B6D0EB" transform="translate(667,610)"/>
<path d="M0 0 C0 0.66 0 1.32 0 2 C1.32 2.33 2.64 2.66 4 3 C2.35 3.33 0.7 3.66 -1 4 C-1 4.66 -1 5.32 -1 6 C-3.31 6.33 -5.62 6.66 -8 7 C-7.8125 5.1875 -7.8125 5.1875 -7 3 C-2.82142857 0 -2.82142857 0 0 0 Z " fill="#A8C2E3" transform="translate(73,645)"/>
<path d="M0 0 C2.875 0.6875 2.875 0.6875 6 2 C7.375 4.625 7.375 4.625 8 7 C-1.59453303 4.10933941 -1.59453303 4.10933941 -5 1 C-2.525 1.495 -2.525 1.495 0 2 C0 1.34 0 0.68 0 0 Z " fill="#C7DAEF" transform="translate(591,565)"/>
<path d="M0 0 C-0.125 2.3125 -0.125 2.3125 -1 5 C-4.0625 6.8125 -4.0625 6.8125 -7 8 C-7.99 7.01 -8.98 6.02 -10 5 C-8.35 4.67 -6.7 4.34 -5 4 C-5 3.34 -5 2.68 -5 2 C-2 0 -2 0 0 0 Z " fill="#D8E9F7" transform="translate(97,631)"/>
<path d="M0 0 C0.66 0 1.32 0 2 0 C2 1.32 2 2.64 2 4 C-0.78480942 6.70745361 -3.12270528 8.42558597 -7 9 C-6.34 7.35 -5.68 5.7 -5 4 C-4.34 4 -3.68 4 -3 4 C-3 3.34 -3 2.68 -3 2 C-2.01 2 -1.02 2 0 2 C0 1.34 0 0.68 0 0 Z " fill="#DCE9F6" transform="translate(159,594)"/>
<path d="M0 0 C0.99 0.33 1.98 0.66 3 1 C-0.63 4.63 -4.26 8.26 -8 12 C-8.66 11.67 -9.32 11.34 -10 11 C-6.7 7.37 -3.4 3.74 0 0 Z " fill="#2649A0" transform="translate(499,357)"/>
<path d="M0 0 C-2.77280706 3.08089673 -5.06326356 4.68775452 -9 6 C-8.25 3.0625 -8.25 3.0625 -7 0 C-4.09299153 -1.406617 -3.12277995 -1.04092665 0 0 Z " fill="#E3EEF8" transform="translate(90,638)"/>
<path d="M0 0 C0.33 0.66 0.66 1.32 1 2 C0.01 2.495 0.01 2.495 -1 3 C-0.67 3.66 -0.34 4.32 0 5 C-3.59391114 3.66511872 -6.75490696 2.03977277 -10 0 C-6.24527715 -2.59942351 -4.03404839 -1.7929104 0 0 Z " fill="#AACAE9" transform="translate(741,650)"/>
<path d="M0 0 C0 0.66 0 1.32 0 2 C1.32 2.33 2.64 2.66 4 3 C2.35 3.33 0.7 3.66 -1 4 C-1 4.66 -1 5.32 -1 6 C-2.65 6.66 -4.3 7.32 -6 8 C-5.67 7.401875 -5.34 6.80375 -5 6.1875 C-3.79212012 3.94613529 -3.79212012 3.94613529 -4 1 C-2 0 -2 0 0 0 Z " fill="#A9C0E1" transform="translate(59,653)"/>
<path d="M0 0 C2.25 -0.25 2.25 -0.25 5 0 C7.3125 1.9375 7.3125 1.9375 9 4 C9 4.33 9 4.66 9 5 C5.625 4.75 5.625 4.75 2 4 C0.5625 1.9375 0.5625 1.9375 0 0 Z " fill="#D5E3F3" transform="translate(713,637)"/>
<path d="M0 0 C2.25 -0.25 2.25 -0.25 5 0 C7.3125 1.9375 7.3125 1.9375 9 4 C9 4.33 9 4.66 9 5 C5.625 4.75 5.625 4.75 2 4 C0.5625 1.9375 0.5625 1.9375 0 0 Z " fill="#D5E3F3" transform="translate(680,618)"/>
<path d="M0 0 C2.25 -0.25 2.25 -0.25 5 0 C7.3125 1.9375 7.3125 1.9375 9 4 C9 4.33 9 4.66 9 5 C5.625 4.75 5.625 4.75 2 4 C0.5625 1.9375 0.5625 1.9375 0 0 Z " fill="#D5E3F3" transform="translate(647,599)"/>
<path d="M0 0 C4.35535069 1.16142685 6.64619703 2.07699505 9 6 C6.69 5.67 4.38 5.34 2 5 C1.34 3.35 0.68 1.7 0 0 Z " fill="#D9E7F5" transform="translate(614,579)"/>
<path d="M0 0 C0.33 0 0.66 0 1 0 C1 3.96 1 7.92 1 12 C0.67 11.34 0.34 10.68 0 10 C-0.66 10 -1.32 10 -2 10 C-1.125 2.25 -1.125 2.25 0 0 Z " fill="#BADCF4" transform="translate(527,524)"/>
<path d="M0 0 C0.66 0.33 1.32 0.66 2 1 C1.25 2.9375 1.25 2.9375 0 5 C-2.125 5.75 -2.125 5.75 -4 6 C-4.33 4.68 -4.66 3.36 -5 2 C-2.625 0.9375 -2.625 0.9375 0 0 Z " fill="#DBE9F6" transform="translate(142,605)"/>
<path d="M0 0 C-1.44077046 3.36179774 -3.24750021 5.59156268 -6 8 C-6.66 8 -7.32 8 -8 8 C-6.48291727 4.46014029 -4.24676932 0 0 0 Z " fill="#3A9BE0" transform="translate(443,513)"/>
<path d="M0 0 C-0.1875 2.875 -0.1875 2.875 -1 6 C-3.5625 7.375 -3.5625 7.375 -6 8 C-5.649375 7.38125 -5.29875 6.7625 -4.9375 6.125 C-4.628125 5.42375 -4.31875 4.7225 -4 4 C-4.33 3.34 -4.66 2.68 -5 2 C-2 0 -2 0 0 0 Z " fill="#B4CBE8" transform="translate(38,665)"/>
<path d="M0 0 C0.66 0 1.32 0 2 0 C3.26237731 2.52475462 3.09856404 4.31200466 3.0625 7.125 C3.05347656 8.03507813 3.04445313 8.94515625 3.03515625 9.8828125 C3.02355469 10.58148437 3.01195312 11.28015625 3 12 C2.67 12 2.34 12 2 12 C1.67 9.36 1.34 6.72 1 4 C0.34 4.66 -0.32 5.32 -1 6 C-0.67 4.02 -0.34 2.04 0 0 Z " fill="#E6F2FB" transform="translate(525,534)"/>
<path d="M0 0 C-0.66 1.98 -1.32 3.96 -2 6 C-3.32 5.67 -4.64 5.34 -6 5 C-3.74193548 0 -3.74193548 0 0 0 Z " fill="#4966AF" transform="translate(32,673)"/>
<path d="M0 0 C2.02045442 0.60183749 4.02111039 1.27306096 6 2 C6.33 2.66 6.66 3.32 7 4 C5.68 3.67 4.36 3.34 3 3 C3.33 3.99 3.66 4.98 4 6 C1.525 5.01 1.525 5.01 -1 4 C-0.34 3.67 0.32 3.34 1 3 C0.67 2.01 0.34 1.02 0 0 Z " fill="#A8C3E4" transform="translate(763,664)"/>
<path d="M0 0 C2.02045442 0.60183749 4.02111039 1.27306096 6 2 C6.33 2.66 6.66 3.32 7 4 C5.68 3.67 4.36 3.34 3 3 C3.33 3.99 3.66 4.98 4 6 C1.525 5.01 1.525 5.01 -1 4 C-0.34 3.67 0.32 3.34 1 3 C0.67 2.01 0.34 1.02 0 0 Z " fill="#A6C2E4" transform="translate(749,656)"/>
<path d="M0 0 C-0.66 0.66 -1.32 1.32 -2 2 C-1.67 2.66 -1.34 3.32 -1 4 C-3.91517292 2.92598892 -5.77810176 2.22189824 -8 0 C-5.13822943 -1.43088528 -3.06624227 -0.59991697 0 0 Z " fill="#B4D2ED" transform="translate(650,598)"/>
<path d="M0 0 C2.02045442 0.60183749 4.02111039 1.27306096 6 2 C6.33 2.66 6.66 3.32 7 4 C5.68 3.67 4.36 3.34 3 3 C3.33 3.99 3.66 4.98 4 6 C1.525 5.01 1.525 5.01 -1 4 C-0.34 3.67 0.32 3.34 1 3 C0.67 2.01 0.34 1.02 0 0 Z " fill="#A8C3E4" transform="translate(631,588)"/>
<path d="M0 0 C4.875 1.75 4.875 1.75 6 4 C4.02 4.99 4.02 4.99 2 6 C1.01 5.01 0.02 4.02 -1 3 C-0.34 2.67 0.32 2.34 1 2 C0.67 1.34 0.34 0.68 0 0 Z " fill="#ABC6E6" transform="translate(621,582)"/>
<path d="M0 0 C2.02045442 0.60183749 4.02111039 1.27306096 6 2 C6.33 2.66 6.66 3.32 7 4 C5.68 3.67 4.36 3.34 3 3 C3.33 3.99 3.66 4.98 4 6 C1.525 5.01 1.525 5.01 -1 4 C-0.34 3.67 0.32 3.34 1 3 C0.67 2.01 0.34 1.02 0 0 Z " fill="#A8C3E4" transform="translate(598,569)"/>
<path d="M0 0 C1.65 0.33 3.3 0.66 5 1 C3.515 2.485 3.515 2.485 2 4 C1.01 3.67 0.02 3.34 -1 3 C-0.67 2.01 -0.34 1.02 0 0 Z " fill="#E8F2FA" transform="translate(59,652)"/>
<path d="M0 0 C1.65 0.33 3.3 0.66 5 1 C3.515 2.485 3.515 2.485 2 4 C1.01 3.67 0.02 3.34 -1 3 C-0.67 2.01 -0.34 1.02 0 0 Z " fill="#E7F1FA" transform="translate(66,648)"/>
<path d="M0 0 C2.475 0.99 2.475 0.99 5 2 C4.01 3.485 4.01 3.485 3 5 C0.525 4.01 0.525 4.01 -2 3 C-1.34 2.01 -0.68 1.02 0 0 Z " fill="#B5D0EB" transform="translate(721,640)"/>
<path d="M0 0 C-0.33 1.65 -0.66 3.3 -1 5 C-1.99 5.33 -2.98 5.66 -4 6 C-4.33 4.68 -4.66 3.36 -5 2 C-2 0 -2 0 0 0 Z " fill="#CAE1F4" transform="translate(97,631)"/>
<path d="M0 0 C2.475 0.99 2.475 0.99 5 2 C4.01 3.485 4.01 3.485 3 5 C0.525 4.01 0.525 4.01 -2 3 C-1.34 2.01 -0.68 1.02 0 0 Z " fill="#B5D0EB" transform="translate(688,621)"/>
<path d="M0 0 C2.475 0.99 2.475 0.99 5 2 C4.01 3.485 4.01 3.485 3 5 C0.525 4.01 0.525 4.01 -2 3 C-1.34 2.01 -0.68 1.02 0 0 Z " fill="#B5D0EB" transform="translate(655,602)"/>
</svg>
